{
	"asset":{
		"copyright":"Simon Potocnak",
		"generator":"Khronos glTF Blender I/O v3.6.27",
		"version":"2.0"
	},
	"extensionsUsed":[
		"KHR_materials_unlit",
		"KHR_materials_sheen"
	],
	"scene":0,
	"scenes":[
		{
			"name":"Scene",
			"nodes":[
				0,
				1,
				6,
				7,
				8,
				9,
				10,
				11,
				12,
				13,
				14,
				15,
				16,
				17,
				18,
				19,
				20,
				21,
				22,
				23,
				24,
				25,
				26,
				27,
				28,
				29,
				30
			]
		}
	],
	"nodes":[
		{
			"mesh":0,
			"name":"Plane.001",
			"scale":[
				-27.150863647460938,
				-27.150863647460938,
				-27.150863647460938
			],
			"translation":[
				10.97702407836914,
				-7.700441360473633,
				10.159164428710938
			]
		},
		{
			"mesh":1,
			"name":"C",
			"scale":[
				0.4413300156593323,
				0.4413300156593323,
				0.4413300156593323
			],
			"translation":[
				8.88657283782959,
				17.617538452148438,
				16.138885498046875
			]
		},
		{
			"mesh":2,
			"name":"Object_3.001",
			"rotation":[
				0,
				0,
				0.2129995971918106,
				0.9770523309707642
			],
			"translation":[
				41.48216247558594,
				70.8468017578125,
				9.853973097051494e-06
			]
		},
		{
			"mesh":3,
			"name":"Object_3.006",
			"rotation":[
				0,
				0,
				-0.33360105752944946,
				0.9427143335342407
			],
			"scale":[
				0.6718111634254456,
				0.6718111634254456,
				0.6718111634254456
			],
			"translation":[
				-72.46388244628906,
				16.562440872192383,
				2.5603890208003577e-06
			]
		},
		{
			"children":[
				2,
				3
			],
			"name":"Object_2",
			"translation":[
				0,
				-2.268920979986433e-06,
				0
			]
		},
		{
			"children":[
				4
			],
			"name":"VoxelTree.obj.cleaner.materialmerger.gles",
			"translation":[
				-17.999998092651367,
				-18,
				0
			]
		},
		{
			"children":[
				5
			],
			"name":"TREE 01",
			"rotation":[
				-0.70710688829422,
				0,
				0,
				0.7071066498756409
			],
			"scale":[
				1.043258786201477,
				1.0432589054107666,
				1.0432589054107666
			],
			"translation":[
				-7.516379356384277,
				17.617538452148438,
				23.049640655517578
			]
		},
		{
			"mesh":4,
			"name":"TREE 02.001",
			"rotation":[
				-0.7038870453834534,
				0.06740418821573257,
				0.06740421801805496,
				0.7038867473602295
			],
			"scale":[
				1.6105332374572754,
				1.6105334758758545,
				1.610533595085144
			],
			"translation":[
				-71.70429229736328,
				17.61754035949707,
				112.96354675292969
			]
		},
		{
			"mesh":5,
			"name":"pond",
			"scale":[
				-5.608164310455322,
				-5.608164310455322,
				-5.608164310455322
			],
			"translation":[
				78.75114440917969,
				18.5098876953125,
				16.138885498046875
			]
		},
		{
			"mesh":6,
			"name":"Trunt_top.001",
			"rotation":[
				-0.691063404083252,
				-0.6309886574745178,
				0.14977137744426727,
				0.31914475560188293
			],
			"scale":[
				0.7953281998634338,
				0.7953281998634338,
				0.7953283786773682
			],
			"translation":[
				-85.63865661621094,
				8.104333877563477,
				89.15303802490234
			]
		},
		{
			"mesh":4,
			"name":"TREE 02.009",
			"rotation":[
				-0.6075665354728699,
				0.36174988746643066,
				0.3617500364780426,
				0.6075663566589355
			],
			"scale":[
				1.6105331182479858,
				1.6105334758758545,
				1.610533356666565
			],
			"translation":[
				63.5084342956543,
				17.900299072265625,
				109.63775634765625
			]
		},
		{
			"mesh":7,
			"name":"Trunt_top.005",
			"rotation":[
				-0.691063404083252,
				-0.6309886574745178,
				0.14977137744426727,
				0.31914475560188293
			],
			"scale":[
				0.7953281998634338,
				0.7953281998634338,
				0.7953283786773682
			],
			"translation":[
				89.98267364501953,
				8.104333877563477,
				-63.30813217163086
			]
		},
		{
			"mesh":4,
			"name":"TREE 02.006",
			"rotation":[
				-0.6075665354728699,
				0.36174988746643066,
				0.3617500364780426,
				0.6075663566589355
			],
			"scale":[
				1.6105331182479858,
				1.6105334758758545,
				1.610533356666565
			],
			"translation":[
				9.801536560058594,
				43.70880126953125,
				48.749351501464844
			]
		},
		{
			"mesh":8,
			"name":"Cube",
			"scale":[
				0.4413300156593323,
				0.4413300156593323,
				0.4413300156593323
			],
			"translation":[
				39.04486846923828,
				17.725330352783203,
				37.1478271484375
			]
		},
		{
			"mesh":8,
			"name":"Cube.001",
			"scale":[
				0.4413300156593323,
				0.4413300156593323,
				0.4413300156593323
			],
			"translation":[
				-38.874725341796875,
				17.725330352783203,
				16.14822006225586
			]
		},
		{
			"mesh":8,
			"name":"Cube.002",
			"scale":[
				0.4413300156593323,
				0.4413300156593323,
				0.4413300156593323
			],
			"translation":[
				-43.295692443847656,
				17.725330352783203,
				54.00277328491211
			]
		},
		{
			"mesh":8,
			"name":"Cube.003",
			"scale":[
				0.4413300156593323,
				0.4413300156593323,
				0.4413300156593323
			],
			"translation":[
				-87.78169250488281,
				17.725330352783203,
				44.884521484375
			]
		},
		{
			"mesh":8,
			"name":"Cube.004",
			"scale":[
				0.4413300156593323,
				0.4413300156593323,
				0.4413300156593323
			],
			"translation":[
				-76.45296478271484,
				17.725330352783203,
				-19.77216339111328
			]
		},
		{
			"mesh":8,
			"name":"Cube.005",
			"scale":[
				0.4413300156593323,
				0.4413300156593323,
				0.4413300156593323
			],
			"translation":[
				-53.24287414550781,
				17.725330352783203,
				-50.442649841308594
			]
		},
		{
			"mesh":8,
			"name":"Cube.006",
			"scale":[
				0.4413300156593323,
				0.4413300156593323,
				0.4413300156593323
			],
			"translation":[
				31.30817413330078,
				17.725330352783203,
				-52.10050964355469
			]
		},
		{
			"mesh":8,
			"name":"Cube.007",
			"scale":[
				0.4413300156593323,
				0.4413300156593323,
				0.4413300156593323
			],
			"translation":[
				110.3330078125,
				17.725330352783203,
				-26.679931640625
			]
		},
		{
			"mesh":8,
			"name":"Cube.008",
			"scale":[
				0.4413300156593323,
				0.4413300156593323,
				0.4413300156593323
			],
			"translation":[
				107.56990051269531,
				17.725330352783203,
				70.58141326904297
			]
		},
		{
			"mesh":8,
			"name":"Cube.009",
			"scale":[
				0.4413300156593323,
				0.4413300156593323,
				0.4413300156593323
			],
			"translation":[
				-14.283084869384766,
				17.725330352783203,
				105.39654541015625
			]
		},
		{
			"mesh":8,
			"name":"Cube.010",
			"scale":[
				0.4413300156593323,
				0.4413300156593323,
				0.4413300156593323
			],
			"translation":[
				52.307769775390625,
				17.725330352783203,
				114.79110717773438
			]
		},
		{
			"mesh":8,
			"name":"Cube.011",
			"scale":[
				0.4413300156593323,
				0.4413300156593323,
				0.4413300156593323
			],
			"translation":[
				97.62271881103516,
				17.725330352783203,
				98.48877716064453
			]
		},
		{
			"mesh":9,
			"name":"Cube.012",
			"rotation":[
				0,
				0.11986523121595383,
				0,
				0.992790162563324
			],
			"scale":[
				0.3764530122280121,
				0.3764530122280121,
				0.15689541399478912
			],
			"translation":[
				11.186534881591797,
				17.436019897460938,
				93.74710845947266
			]
		},
		{
			"mesh":9,
			"name":"Cube.013",
			"rotation":[
				0,
				-0.2716379165649414,
				0,
				0.9623995423316956
			],
			"scale":[
				0.3764530122280121,
				0.3764530122280121,
				0.1568954437971115
			],
			"translation":[
				-21.412353515625,
				17.339622497558594,
				59.56889343261719
			]
		},
		{
			"mesh":9,
			"name":"Cube.014",
			"rotation":[
				0,
				-0.2716379165649414,
				0,
				0.9623995423316956
			],
			"scale":[
				0.3764530122280121,
				0.3764530122280121,
				0.1568954437971115
			],
			"translation":[
				23.87188720703125,
				17.339622497558594,
				-7.9737091064453125
			]
		},
		{
			"mesh":8,
			"name":"Cube.015",
			"scale":[
				0.4413300156593323,
				0.4413300156593323,
				0.4413300156593323
			],
			"translation":[
				59.94470977783203,
				17.725330352783203,
				29.771867752075195
			]
		},
		{
			"mesh":8,
			"name":"Cube.016",
			"scale":[
				0.4413300156593323,
				0.4413300156593323,
				0.4413300156593323
			],
			"translation":[
				96.4023666381836,
				17.725330352783203,
				-6.8776702880859375
			]
		},
		{
			"mesh":8,
			"name":"Rock",
			"scale":[
				0.4413300156593323,
				0.4413300156593323,
				0.4413300156593323
			],
			"translation":[
				39.04486846923828,
				17.725330352783203,
				37.1478271484375
			]
		}
	],
	"materials":[
		{
			"extensions":{
				"KHR_materials_unlit":{}
			},
			"name":"Material.095",
			"pbrMetallicRoughness":{
				"baseColorTexture":{
					"index":0,
					"texCoord":0
				},
				"metallicFactor":0,
				"roughnessFactor":0.9
			}
		},
		{
			"doubleSided":true,
			"name":"Material.006",
			"pbrMetallicRoughness":{}
		},
		{
			"emissiveTexture":{
				"index":1
			},
			"name":"palette.001",
			"pbrMetallicRoughness":{}
		},
		{
			"emissiveTexture":{
				"index":2
			},
			"name":"palette.006",
			"pbrMetallicRoughness":{}
		},
		{
			"name":"Material.1",
			"pbrMetallicRoughness":{
				"baseColorTexture":{
					"index":3
				},
				"metallicFactor":0.31023621559143066,
				"roughnessFactor":0
			}
		},
		{
			"alphaMode":"BLEND",
			"doubleSided":true,
			"name":"Material.012",
			"pbrMetallicRoughness":{}
		},
		{
			"name":"Material.015",
			"pbrMetallicRoughness":{
				"baseColorTexture":{
					"index":4
				},
				"metallicFactor":0.20000000298023224,
				"roughnessFactor":0.5
			}
		},
		{
			"doubleSided":true,
			"extensions":{
				"KHR_materials_sheen":{
					"sheenColorFactor":[
						1,
						1,
						1
					],
					"sheenColorTexture":{
						"index":5
					},
					"sheenRoughnessFactor":1
				}
			},
			"name":"Material.014",
			"pbrMetallicRoughness":{}
		},
		{
			"name":"Material.145",
			"pbrMetallicRoughness":{
				"baseColorTexture":{
					"index":6
				},
				"metallicFactor":0.20000000298023224,
				"roughnessFactor":0.5
			}
		},
		{
			"doubleSided":true,
			"extensions":{
				"KHR_materials_sheen":{
					"sheenColorFactor":[
						1,
						1,
						1
					],
					"sheenColorTexture":{
						"index":7
					},
					"sheenRoughnessFactor":1
				}
			},
			"name":"Material.146",
			"pbrMetallicRoughness":{}
		},
		{
			"doubleSided":true,
			"name":"Material.007",
			"pbrMetallicRoughness":{
				"baseColorFactor":[
					0.06071946769952774,
					0.06071946769952774,
					0.06071946769952774,
					1
				],
				"metallicFactor":0,
				"roughnessFactor":0.5
			}
		},
		{
			"doubleSided":true,
			"name":"Material.008",
			"pbrMetallicRoughness":{
				"baseColorFactor":[
					0.06071946769952774,
					0.06071946769952774,
					0.06071946769952774,
					1
				],
				"metallicFactor":0,
				"roughnessFactor":0.5
			}
		},
		{
			"doubleSided":true,
			"name":"Material.013",
			"pbrMetallicRoughness":{}
		}
	],
	"meshes":[
		{
			"name":"Plane",
			"primitives":[
				{
					"attributes":{
						"POSITION":0,
						"NORMAL":1,
						"TEXCOORD_0":2
					},
					"indices":3,
					"material":0
				}
			]
		},
		{
			"name":"Plane.023",
			"primitives":[
				{
					"attributes":{
						"POSITION":4,
						"NORMAL":5,
						"TEXCOORD_0":6
					},
					"indices":7,
					"material":1
				}
			]
		},
		{
			"name":"Object_0.001",
			"primitives":[
				{
					"attributes":{
						"POSITION":8,
						"NORMAL":9,
						"TEXCOORD_0":10
					},
					"indices":11,
					"material":2
				}
			]
		},
		{
			"name":"Object_0.006",
			"primitives":[
				{
					"attributes":{
						"POSITION":12,
						"NORMAL":13,
						"TEXCOORD_0":14
					},
					"indices":11,
					"material":3
				}
			]
		},
		{
			"name":"Mesh_0",
			"primitives":[
				{
					"attributes":{
						"POSITION":15,
						"NORMAL":16,
						"TEXCOORD_0":17
					},
					"indices":18,
					"material":4
				}
			]
		},
		{
			"name":"Plane.001",
			"primitives":[
				{
					"attributes":{
						"POSITION":19,
						"NORMAL":20,
						"TEXCOORD_0":21
					},
					"indices":22,
					"material":5
				}
			]
		},
		{
			"name":"Mesh_10.001",
			"primitives":[
				{
					"attributes":{
						"POSITION":23,
						"NORMAL":24,
						"TEXCOORD_0":25
					},
					"indices":26,
					"material":6
				},
				{
					"attributes":{
						"POSITION":27,
						"NORMAL":28,
						"TEXCOORD_0":29
					},
					"indices":30,
					"material":7
				}
			]
		},
		{
			"name":"Mesh_10.005",
			"primitives":[
				{
					"attributes":{
						"POSITION":31,
						"NORMAL":32,
						"TEXCOORD_0":33
					},
					"indices":26,
					"material":8
				},
				{
					"attributes":{
						"POSITION":34,
						"NORMAL":35,
						"TEXCOORD_0":36
					},
					"indices":30,
					"material":9
				}
			]
		},
		{
			"name":"Cube.002",
			"primitives":[
				{
					"attributes":{
						"POSITION":37,
						"NORMAL":38,
						"TEXCOORD_0":39
					},
					"indices":40,
					"material":10
				},
				{
					"attributes":{
						"POSITION":41,
						"NORMAL":42,
						"TEXCOORD_0":43
					},
					"indices":44,
					"material":11
				}
			]
		},
		{
			"name":"Cube.009",
			"primitives":[
				{
					"attributes":{
						"POSITION":45,
						"NORMAL":46,
						"TEXCOORD_0":47
					},
					"indices":48,
					"material":12
				}
			]
		}
	],
	"textures":[
		{
			"sampler":0,
			"source":0
		},
		{
			"sampler":0,
			"source":1
		},
		{
			"sampler":0,
			"source":1
		},
		{
			"sampler":0,
			"source":2
		},
		{
			"sampler":0,
			"source":2
		},
		{
			"sampler":1,
			"source":3
		},
		{
			"sampler":0,
			"source":2
		},
		{
			"sampler":1,
			"source":3
		}
	],
	"images":[
		{
			"bufferView":4,
			"mimeType":"image/png",
			"name":"egg"
		},
		{
			"bufferView":13,
			"mimeType":"image/png",
			"name":"palette_diffuse"
		},
		{
			"bufferView":21,
			"mimeType":"image/png",
			"name":"Image_0"
		},
		{
			"bufferView":34,
			"mimeType":"image/png",
			"name":"trunkTexture.png"
		}
	],
	"accessors":[
		{
			"bufferView":0,
			"componentType":5126,
			"count":4,
			"max":[
				10,
				0,
				10
			],
			"min":[
				-10,
				0,
				-10
			],
			"type":"VEC3"
		},
		{
			"bufferView":1,
			"componentType":5126,
			"count":4,
			"type":"VEC3"
		},
		{
			"bufferView":2,
			"componentType":5126,
			"count":4,
			"type":"VEC2"
		},
		{
			"bufferView":3,
			"componentType":5123,
			"count":6,
			"type":"SCALAR"
		},
		{
			"bufferView":5,
			"componentType":5126,
			"count":6,
			"max":[
				250,
				0,
				250
			],
			"min":[
				-250,
				0,
				-250
			],
			"type":"VEC3"
		},
		{
			"bufferView":6,
			"componentType":5126,
			"count":6,
			"type":"VEC3"
		},
		{
			"bufferView":7,
			"componentType":5126,
			"count":6,
			"type":"VEC2"
		},
		{
			"bufferView":8,
			"componentType":5123,
			"count":12,
			"type":"SCALAR"
		},
		{
			"bufferView":9,
			"componentType":5126,
			"count":4782,
			"max":[
				36,
				36,
				58
			],
			"min":[
				0,
				0,
				0
			],
			"type":"VEC3"
		},
		{
			"bufferView":10,
			"componentType":5126,
			"count":4782,
			"type":"VEC3"
		},
		{
			"bufferView":11,
			"componentType":5126,
			"count":4782,
			"type":"VEC2"
		},
		{
			"bufferView":12,
			"componentType":5123,
			"count":8232,
			"type":"SCALAR"
		},
		{
			"bufferView":14,
			"componentType":5126,
			"count":4782,
			"max":[
				36,
				36,
				58
			],
			"min":[
				0,
				0,
				0
			],
			"type":"VEC3"
		},
		{
			"bufferView":15,
			"componentType":5126,
			"count":4782,
			"type":"VEC3"
		},
		{
			"bufferView":16,
			"componentType":5126,
			"count":4782,
			"type":"VEC2"
		},
		{
			"bufferView":17,
			"componentType":5126,
			"count":11880,
			"max":[
				28,
				28,
				40
			],
			"min":[
				3,
				3,
				0
			],
			"type":"VEC3"
		},
		{
			"bufferView":18,
			"componentType":5126,
			"count":11880,
			"type":"VEC3"
		},
		{
			"bufferView":19,
			"componentType":5126,
			"count":11880,
			"type":"VEC2"
		},
		{
			"bufferView":20,
			"componentType":5123,
			"count":17820,
			"type":"SCALAR"
		},
		{
			"bufferView":22,
			"componentType":5126,
			"count":34,
			"max":[
				3.9482998847961426,
				0.0077082873322069645,
				3.7095086574554443
			],
			"min":[
				-4.2705159187316895,
				-0.03443143889307976,
				-4.2283101081848145
			],
			"type":"VEC3"
		},
		{
			"bufferView":23,
			"componentType":5126,
			"count":34,
			"type":"VEC3"
		},
		{
			"bufferView":24,
			"componentType":5126,
			"count":34,
			"type":"VEC2"
		},
		{
			"bufferView":25,
			"componentType":5123,
			"count":96,
			"type":"SCALAR"
		},
		{
			"bufferView":26,
			"componentType":5126,
			"count":9068,
			"max":[
				28,
				12,
				8.000001907348633
			],
			"min":[
				3,
				-13,
				-16
			],
			"type":"VEC3"
		},
		{
			"bufferView":27,
			"componentType":5126,
			"count":9068,
			"type":"VEC3"
		},
		{
			"bufferView":28,
			"componentType":5126,
			"count":9068,
			"type":"VEC2"
		},
		{
			"bufferView":29,
			"componentType":5123,
			"count":13602,
			"type":"SCALAR"
		},
		{
			"bufferView":30,
			"componentType":5126,
			"count":24,
			"max":[
				21.383319854736328,
				2.9506475925445557,
				-3.0058040618896484
			],
			"min":[
				13.878125190734863,
				-3.2438910007476807,
				-26.01219367980957
			],
			"type":"VEC3"
		},
		{
			"bufferView":31,
			"componentType":5126,
			"count":24,
			"type":"VEC3"
		},
		{
			"bufferView":32,
			"componentType":5126,
			"count":24,
			"type":"VEC2"
		},
		{
			"bufferView":33,
			"componentType":5123,
			"count":36,
			"type":"SCALAR"
		},
		{
			"bufferView":35,
			"componentType":5126,
			"count":9068,
			"max":[
				28,
				12,
				8.000001907348633
			],
			"min":[
				3,
				-13,
				-16
			],
			"type":"VEC3"
		},
		{
			"bufferView":36,
			"componentType":5126,
			"count":9068,
			"type":"VEC3"
		},
		{
			"bufferView":37,
			"componentType":5126,
			"count":9068,
			"type":"VEC2"
		},
		{
			"bufferView":38,
			"componentType":5126,
			"count":24,
			"max":[
				21.383319854736328,
				2.9506475925445557,
				-3.0058040618896484
			],
			"min":[
				13.878125190734863,
				-3.2438910007476807,
				-26.01219367980957
			],
			"type":"VEC3"
		},
		{
			"bufferView":39,
			"componentType":5126,
			"count":24,
			"type":"VEC3"
		},
		{
			"bufferView":40,
			"componentType":5126,
			"count":24,
			"type":"VEC2"
		},
		{
			"bufferView":41,
			"componentType":5126,
			"count":144,
			"max":[
				1.3003654479980469,
				5.031484127044678,
				12.359039306640625
			],
			"min":[
				-14.629276275634766,
				-0.2442488670349121,
				-1.4425926208496094
			],
			"type":"VEC3"
		},
		{
			"bufferView":42,
			"componentType":5126,
			"count":144,
			"type":"VEC3"
		},
		{
			"bufferView":43,
			"componentType":5126,
			"count":144,
			"type":"VEC2"
		},
		{
			"bufferView":44,
			"componentType":5123,
			"count":216,
			"type":"SCALAR"
		},
		{
			"bufferView":45,
			"componentType":5126,
			"count":24,
			"max":[
				-0.7773408889770508,
				4.480965614318848,
				11.05003547668457
			],
			"min":[
				-13.4083251953125,
				-0.46378254890441895,
				-1.7746849060058594
			],
			"type":"VEC3"
		},
		{
			"bufferView":46,
			"componentType":5126,
			"count":24,
			"type":"VEC3"
		},
		{
			"bufferView":47,
			"componentType":5126,
			"count":24,
			"type":"VEC2"
		},
		{
			"bufferView":48,
			"componentType":5123,
			"count":36,
			"type":"SCALAR"
		},
		{
			"bufferView":49,
			"componentType":5126,
			"count":24,
			"max":[
				18.697097778320312,
				8.881317138671875,
				19.790315628051758
			],
			"min":[
				-18.806787490844727,
				-5.655303955078125,
				-19.092514038085938
			],
			"type":"VEC3"
		},
		{
			"bufferView":50,
			"componentType":5126,
			"count":24,
			"type":"VEC3"
		},
		{
			"bufferView":51,
			"componentType":5126,
			"count":24,
			"type":"VEC2"
		},
		{
			"bufferView":52,
			"componentType":5123,
			"count":36,
			"type":"SCALAR"
		}
	],
	"bufferViews":[
		{
			"buffer":0,
			"byteLength":48,
			"byteOffset":0,
			"target":34962
		},
		{
			"buffer":0,
			"byteLength":48,
			"byteOffset":48,
			"target":34962
		},
		{
			"buffer":0,
			"byteLength":32,
			"byteOffset":96,
			"target":34962
		},
		{
			"buffer":0,
			"byteLength":12,
			"byteOffset":128,
			"target":34963
		},
		{
			"buffer":0,
			"byteLength":121049,
			"byteOffset":140
		},
		{
			"buffer":0,
			"byteLength":72,
			"byteOffset":121192,
			"target":34962
		},
		{
			"buffer":0,
			"byteLength":72,
			"byteOffset":121264,
			"target":34962
		},
		{
			"buffer":0,
			"byteLength":48,
			"byteOffset":121336,
			"target":34962
		},
		{
			"buffer":0,
			"byteLength":24,
			"byteOffset":121384,
			"target":34963
		},
		{
			"buffer":0,
			"byteLength":57384,
			"byteOffset":121408,
			"target":34962
		},
		{
			"buffer":0,
			"byteLength":57384,
			"byteOffset":178792,
			"target":34962
		},
		{
			"buffer":0,
			"byteLength":38256,
			"byteOffset":236176,
			"target":34962
		},
		{
			"buffer":0,
			"byteLength":16464,
			"byteOffset":274432,
			"target":34963
		},
		{
			"buffer":0,
			"byteLength":837,
			"byteOffset":290896
		},
		{
			"buffer":0,
			"byteLength":57384,
			"byteOffset":291736,
			"target":34962
		},
		{
			"buffer":0,
			"byteLength":57384,
			"byteOffset":349120,
			"target":34962
		},
		{
			"buffer":0,
			"byteLength":38256,
			"byteOffset":406504,
			"target":34962
		},
		{
			"buffer":0,
			"byteLength":142560,
			"byteOffset":444760,
			"target":34962
		},
		{
			"buffer":0,
			"byteLength":142560,
			"byteOffset":587320,
			"target":34962
		},
		{
			"buffer":0,
			"byteLength":95040,
			"byteOffset":729880,
			"target":34962
		},
		{
			"buffer":0,
			"byteLength":35640,
			"byteOffset":824920,
			"target":34963
		},
		{
			"buffer":0,
			"byteLength":96,
			"byteOffset":860560
		},
		{
			"buffer":0,
			"byteLength":408,
			"byteOffset":860656,
			"target":34962
		},
		{
			"buffer":0,
			"byteLength":408,
			"byteOffset":861064,
			"target":34962
		},
		{
			"buffer":0,
			"byteLength":272,
			"byteOffset":861472,
			"target":34962
		},
		{
			"buffer":0,
			"byteLength":192,
			"byteOffset":861744,
			"target":34963
		},
		{
			"buffer":0,
			"byteLength":108816,
			"byteOffset":861936,
			"target":34962
		},
		{
			"buffer":0,
			"byteLength":108816,
			"byteOffset":970752,
			"target":34962
		},
		{
			"buffer":0,
			"byteLength":72544,
			"byteOffset":1079568,
			"target":34962
		},
		{
			"buffer":0,
			"byteLength":27204,
			"byteOffset":1152112,
			"target":34963
		},
		{
			"buffer":0,
			"byteLength":288,
			"byteOffset":1179316,
			"target":34962
		},
		{
			"buffer":0,
			"byteLength":288,
			"byteOffset":1179604,
			"target":34962
		},
		{
			"buffer":0,
			"byteLength":192,
			"byteOffset":1179892,
			"target":34962
		},
		{
			"buffer":0,
			"byteLength":72,
			"byteOffset":1180084,
			"target":34963
		},
		{
			"buffer":0,
			"byteLength":56625,
			"byteOffset":1180156
		},
		{
			"buffer":0,
			"byteLength":108816,
			"byteOffset":1236784,
			"target":34962
		},
		{
			"buffer":0,
			"byteLength":108816,
			"byteOffset":1345600,
			"target":34962
		},
		{
			"buffer":0,
			"byteLength":72544,
			"byteOffset":1454416,
			"target":34962
		},
		{
			"buffer":0,
			"byteLength":288,
			"byteOffset":1526960,
			"target":34962
		},
		{
			"buffer":0,
			"byteLength":288,
			"byteOffset":1527248,
			"target":34962
		},
		{
			"buffer":0,
			"byteLength":192,
			"byteOffset":1527536,
			"target":34962
		},
		{
			"buffer":0,
			"byteLength":1728,
			"byteOffset":1527728,
			"target":34962
		},
		{
			"buffer":0,
			"byteLength":1728,
			"byteOffset":1529456,
			"target":34962
		},
		{
			"buffer":0,
			"byteLength":1152,
			"byteOffset":1531184,
			"target":34962
		},
		{
			"buffer":0,
			"byteLength":432,
			"byteOffset":1532336,
			"target":34963
		},
		{
			"buffer":0,
			"byteLength":288,
			"byteOffset":1532768,
			"target":34962
		},
		{
			"buffer":0,
			"byteLength":288,
			"byteOffset":1533056,
			"target":34962
		},
		{
			"buffer":0,
			"byteLength":192,
			"byteOffset":1533344,
			"target":34962
		},
		{
			"buffer":0,
			"byteLength":72,
			"byteOffset":1533536,
			"target":34963
		},
		{
			"buffer":0,
			"byteLength":288,
			"byteOffset":1533608,
			"target":34962
		},
		{
			"buffer":0,
			"byteLength":288,
			"byteOffset":1533896,
			"target":34962
		},
		{
			"buffer":0,
			"byteLength":192,
			"byteOffset":1534184,
			"target":34962
		},
		{
			"buffer":0,
			"byteLength":72,
			"byteOffset":1534376,
			"target":34963
		}
	],
	"samplers":[
		{
			"magFilter":9729,
			"minFilter":9987
		},
		{
			"magFilter":9729,
			"minFilter":9987,
			"wrapS":33071,
			"wrapT":33071
		}
	],
	"buffers":[
		{
			"byteLength":1534448,
			"uri":"data:application/octet-stream;base64,"
		}
	]
}
