{
	"asset":{
		"generator":"Khronos glTF Blender I/O v3.6.27",
		"version":"2.0"
	},
	"scene":0,
	"scenes":[
		{
			"name":"Scene",
			"nodes":[
				0
			]
		}
	],
	"nodes":[
		{
			"mesh":0,
			"name":"Mesh_9",
			"rotation":[
				-0.70710688829422,
				0,
				0,
				0.7071066498756409
			],
			"translation":[
				0,
				32.00000762939453,
				15.99999713897705
			]
		}
	],
	"materials":[
		{
			"name":"Material.1",
			"pbrMetallicRoughness":{
				"baseColorTexture":{
					"index":0
				},
				"metallicFactor":0.20000000298023224,
				"roughnessFactor":0.5
			}
		}
	],
	"meshes":[
		{
			"name":"Mesh_9",
			"primitives":[
				{
					"attributes":{
						"POSITION":0,
						"NORMAL":1,
						"TEXCOORD_0":2
					},
					"indices":3,
					"material":0
				}
			]
		}
	],
	"textures":[
		{
			"sampler":0,
			"source":0
		}
	],
	"images":[
		{
			"bufferView":4,
			"mimeType":"image/png",
			"name":"Image_0"
		}
	],
	"accessors":[
		{
			"bufferView":0,
			"componentType":5126,
			"count":11880,
			"max":[
				12,
				28,
				8.000001907348633
			],
			"min":[
				-13,
				3,
				-32
			],
			"type":"VEC3"
		},
		{
			"bufferView":1,
			"componentType":5126,
			"count":11880,
			"type":"VEC3"
		},
		{
			"bufferView":2,
			"componentType":5126,
			"count":11880,
			"type":"VEC2"
		},
		{
			"bufferView":3,
			"componentType":5123,
			"count":17820,
			"type":"SCALAR"
		}
	],
	"bufferViews":[
		{
			"buffer":0,
			"byteLength":142560,
			"byteOffset":0,
			"target":34962
		},
		{
			"buffer":0,
			"byteLength":142560,
			"byteOffset":142560,
			"target":34962
		},
		{
			"buffer":0,
			"byteLength":95040,
			"byteOffset":285120,
			"target":34962
		},
		{
			"buffer":0,
			"byteLength":35640,
			"byteOffset":380160,
			"target":34963
		},
		{
			"buffer":0,
			"byteLength":96,
			"byteOffset":415800
		}
	],
	"samplers":[
		{
			"magFilter":9729,
			"minFilter":9987
		}
	],
	"buffers":[
		{
			"byteLength":415896,
			"uri":"data:application/octet-stream;base64,"
		}
	]
}
