{
	"asset":{
		"copyright":"Simon Potocnak",
		"generator":"Khronos glTF Blender I/O v3.6.27",
		"version":"2.0"
	},
	"scene":0,
	"scenes":[
		{
			"name":"Scene",
			"nodes":[
				0,
				1,
				2,
				4,
				7,
				8,
				9,
				10,
				11,
				12,
				13,
				14,
				15,
				16,
				17,
				18,
				19,
				20,
				21,
				22,
				23,
				24,
				25,
				26,
				27,
				28,
				29,
				30,
				31,
				32,
				33,
				34,
				35,
				36
			]
		}
	],
	"nodes":[
		{
			"mesh":0,
			"name":"BC",
			"scale":[
				0.4413300156593323,
				0.4413300156593323,
				0.4413300156593323
			],
			"translation":[
				-6.154621601104736,
				17.617538452148438,
				-226.4386749267578
			]
		},
		{
			"mesh":1,
			"name":"TREE 02.005",
			"rotation":[
				-0.6805786490440369,
				-0.19186726212501526,
				-0.1918674111366272,
				0.6805782318115234
			],
			"scale":[
				1.6105332374572754,
				1.6105339527130127,
				1.6105340719223022
			],
			"translation":[
				-95.29557800292969,
				16.943626403808594,
				-16.509878158569336
			]
		},
		{
			"mesh":1,
			"name":"TREE 02.003",
			"rotation":[
				-0.6805786490440369,
				-0.19186726212501526,
				-0.1918674111366272,
				0.6805782318115234
			],
			"scale":[
				1.6105332374572754,
				1.6105339527130127,
				1.6105340719223022
			],
			"translation":[
				-9.046424865722656,
				16.944839477539062,
				-16.00214195251465
			]
		},
		{
			"name":"Object_2.001"
		},
		{
			"children":[
				3
			],
			"name":"VoxelTree.obj.cleaner.materialmerger.gles.001",
			"translation":[
				-38.10264587402344,
				-18,
				-0.06558728218078613
			]
		},
		{
			"name":"Object_2.002",
			"translation":[
				0,
				0,
				-2.2082872419559862e-06
			]
		},
		{
			"children":[
				5
			],
			"name":"VoxelTree.obj.cleaner.materialmerger.gles.002",
			"translation":[
				-17.999998092651367,
				-17.999996185302734,
				-2.2082872419559862e-06
			]
		},
		{
			"children":[
				6
			],
			"name":"TREE 01.002",
			"rotation":[
				-0.70710688829422,
				0,
				0,
				0.7071066498756409
			],
			"scale":[
				1.043258786201477,
				1.043258547782898,
				1.043258547782898
			],
			"translation":[
				-6.154621601104736,
				17.617538452148438,
				1.9627482891082764
			]
		},
		{
			"mesh":2,
			"name":"Mountain.011",
			"rotation":[
				0,
				0,
				-1,
				0
			],
			"scale":[
				-1,
				-19.624048233032227,
				-1
			],
			"translation":[
				-98.64282989501953,
				11.380605697631836,
				87.96097564697266
			]
		},
		{
			"mesh":3,
			"name":"Cube.020",
			"scale":[
				0.442114919424057,
				0.442114919424057,
				0.442114919424057
			],
			"translation":[
				-94.29312133789062,
				16.729944229125977,
				-57.82451248168945
			]
		},
		{
			"mesh":3,
			"name":"Cube.021",
			"scale":[
				0.442114919424057,
				0.442114919424057,
				0.442114919424057
			],
			"translation":[
				-71.04174041748047,
				16.729944229125977,
				-88.54956817626953
			]
		},
		{
			"mesh":3,
			"name":"Cube.022",
			"scale":[
				0.442114919424057,
				0.442114919424057,
				0.442114919424057
			],
			"translation":[
				13.659688949584961,
				16.729944229125977,
				-90.21036529541016
			]
		},
		{
			"mesh":3,
			"name":"Cube.023",
			"scale":[
				0.442114919424057,
				0.442114919424057,
				0.442114919424057
			],
			"translation":[
				92.8250732421875,
				16.729944229125977,
				-64.74457550048828
			]
		},
		{
			"mesh":3,
			"name":"Cube.024",
			"scale":[
				0.442114919424057,
				0.442114919424057,
				0.442114919424057
			],
			"translation":[
				90.05705261230469,
				16.729944229125977,
				32.68976974487305
			]
		},
		{
			"mesh":3,
			"name":"Cube.026",
			"scale":[
				0.442114919424057,
				0.442114919424057,
				0.442114919424057
			],
			"translation":[
				34.696632385253906,
				16.729944229125977,
				76.97806549072266
			]
		},
		{
			"mesh":3,
			"name":"Cube.027",
			"scale":[
				0.442114919424057,
				0.442114919424057,
				0.442114919424057
			],
			"translation":[
				80.09217071533203,
				16.729944229125977,
				60.6467399597168
			]
		},
		{
			"mesh":4,
			"name":"Cube.030",
			"rotation":[
				0,
				-0.2716379165649414,
				0,
				0.9623995423316956
			],
			"scale":[
				0.37712258100509644,
				0.37712258100509644,
				0.1571744829416275
			],
			"translation":[
				6.210172176361084,
				16.343549728393555,
				-46.00508499145508
			]
		},
		{
			"mesh":3,
			"name":"Cube.031",
			"scale":[
				0.442114919424057,
				0.442114919424057,
				0.442114919424057
			],
			"translation":[
				42.34715270996094,
				16.729944229125977,
				-8.19237232208252
			]
		},
		{
			"mesh":3,
			"name":"Cube.032",
			"scale":[
				0.442114919424057,
				0.442114919424057,
				0.442114919424057
			],
			"translation":[
				78.86964416503906,
				16.729944229125977,
				-44.9070930480957
			]
		},
		{
			"mesh":5,
			"name":"Mountain",
			"rotation":[
				0,
				0,
				-1,
				0
			],
			"scale":[
				-1,
				-19.624048233032227,
				-1
			],
			"translation":[
				-98.64282989501953,
				11.380605697631836,
				87.96097564697266
			]
		},
		{
			"mesh":6,
			"name":"Cube.033",
			"rotation":[
				0,
				-0.26057377457618713,
				0,
				0.9654540419578552
			],
			"scale":[
				1.5633111000061035,
				1.5633111000061035,
				1.5633111000061035
			],
			"translation":[
				-24.930627822875977,
				73.0751953125,
				91.75968170166016
			]
		},
		{
			"mesh":6,
			"name":"Cube.017",
			"rotation":[
				0,
				-0.2605738043785095,
				0,
				0.9654540419578552
			],
			"scale":[
				1.062570571899414,
				1.062570571899414,
				1.062570571899414
			],
			"translation":[
				86.2869873046875,
				54.62599182128906,
				51.13694381713867
			]
		},
		{
			"mesh":3,
			"name":"Cube.018",
			"scale":[
				0.442114919424057,
				0.442114919424057,
				0.442114919424057
			],
			"translation":[
				-37.999359130859375,
				17.25252342224121,
				17.174448013305664
			]
		},
		{
			"mesh":3,
			"name":"Cube.025",
			"scale":[
				0.442114919424057,
				0.442114919424057,
				0.442114919424057
			],
			"translation":[
				-94.29312133789062,
				16.729944229125977,
				-57.82451248168945
			]
		},
		{
			"mesh":3,
			"name":"Cube.028",
			"scale":[
				0.442114919424057,
				0.442114919424057,
				0.442114919424057
			],
			"translation":[
				-71.04174041748047,
				16.729944229125977,
				-88.54956817626953
			]
		},
		{
			"mesh":3,
			"name":"Cube.029",
			"scale":[
				0.442114919424057,
				0.442114919424057,
				0.442114919424057
			],
			"translation":[
				13.659688949584961,
				16.729944229125977,
				-90.21036529541016
			]
		},
		{
			"mesh":3,
			"name":"Cube.034",
			"scale":[
				0.442114919424057,
				0.442114919424057,
				0.442114919424057
			],
			"translation":[
				92.8250732421875,
				16.729944229125977,
				-64.74457550048828
			]
		},
		{
			"mesh":3,
			"name":"Cube.035",
			"scale":[
				0.442114919424057,
				0.442114919424057,
				0.442114919424057
			],
			"translation":[
				90.05705261230469,
				16.729944229125977,
				32.68976974487305
			]
		},
		{
			"mesh":3,
			"name":"Cube.037",
			"scale":[
				0.442114919424057,
				0.442114919424057,
				0.442114919424057
			],
			"translation":[
				34.696632385253906,
				16.729944229125977,
				76.97806549072266
			]
		},
		{
			"mesh":3,
			"name":"Cube.038",
			"scale":[
				0.442114919424057,
				0.442114919424057,
				0.442114919424057
			],
			"translation":[
				80.09217071533203,
				16.729944229125977,
				60.6467399597168
			]
		},
		{
			"mesh":4,
			"name":"Cube.039",
			"rotation":[
				0,
				-0.2716379165649414,
				0,
				0.9623995423316956
			],
			"scale":[
				0.37712258100509644,
				0.37712258100509644,
				0.1571744829416275
			],
			"translation":[
				6.210172176361084,
				16.343549728393555,
				-46.00508499145508
			]
		},
		{
			"mesh":3,
			"name":"Cube.040",
			"scale":[
				0.442114919424057,
				0.442114919424057,
				0.442114919424057
			],
			"translation":[
				42.34715270996094,
				16.729944229125977,
				-8.19237232208252
			]
		},
		{
			"mesh":3,
			"name":"Cube.041",
			"scale":[
				0.442114919424057,
				0.442114919424057,
				0.442114919424057
			],
			"translation":[
				78.86964416503906,
				16.729944229125977,
				-44.9070930480957
			]
		},
		{
			"mesh":5,
			"name":"Mountain.002",
			"rotation":[
				0,
				0,
				-1,
				0
			],
			"scale":[
				-1,
				-19.624048233032227,
				-1
			],
			"translation":[
				-98.64282989501953,
				11.380605697631836,
				87.96097564697266
			]
		},
		{
			"mesh":6,
			"name":"Cube.042",
			"rotation":[
				0,
				-0.26057377457618713,
				0,
				0.9654540419578552
			],
			"scale":[
				1.5633111000061035,
				1.5633111000061035,
				1.5633111000061035
			],
			"translation":[
				-24.930627822875977,
				73.0751953125,
				91.75968170166016
			]
		},
		{
			"mesh":6,
			"name":"Cube.043",
			"rotation":[
				0,
				-0.2605738043785095,
				0,
				0.9654540419578552
			],
			"scale":[
				1.062570571899414,
				1.062570571899414,
				1.062570571899414
			],
			"translation":[
				86.2869873046875,
				54.62599182128906,
				51.13694381713867
			]
		},
		{
			"mesh":3,
			"name":"Cube.044",
			"scale":[
				0.442114919424057,
				0.442114919424057,
				0.442114919424057
			],
			"translation":[
				-37.999359130859375,
				17.25252342224121,
				17.174448013305664
			]
		}
	],
	"materials":[
		{
			"doubleSided":true,
			"name":"Material.004",
			"pbrMetallicRoughness":{
				"baseColorFactor":[
					0.800000011920929,
					0.09000000357627869,
					0,
					1
				],
				"metallicFactor":0.19685038924217224,
				"roughnessFactor":0.9921259880065918
			}
		},
		{
			"name":"Material.005",
			"pbrMetallicRoughness":{
				"baseColorTexture":{
					"index":0
				},
				"metallicFactor":0.31023621559143066,
				"roughnessFactor":0
			}
		},
		{
			"doubleSided":true,
			"name":"Material.009",
			"pbrMetallicRoughness":{
				"baseColorFactor":[
					0.08001189678907394,
					0.020650532096624374,
					0,
					1
				],
				"metallicFactor":0
			}
		},
		{
			"doubleSided":true,
			"name":"Material.010",
			"pbrMetallicRoughness":{
				"baseColorFactor":[
					0.06071946769952774,
					0.06071946769952774,
					0.06071946769952774,
					1
				],
				"metallicFactor":0,
				"roughnessFactor":0.5
			}
		},
		{
			"doubleSided":true,
			"name":"Material.011",
			"pbrMetallicRoughness":{
				"baseColorFactor":[
					0.06071946769952774,
					0.06071946769952774,
					0.06071946769952774,
					1
				],
				"metallicFactor":0,
				"roughnessFactor":0.5
			}
		},
		{
			"doubleSided":true,
			"name":"Material.012",
			"pbrMetallicRoughness":{
				"baseColorFactor":[
					0.06071845814585686,
					0.06071845814585686,
					0.06071845814585686,
					1
				],
				"metallicFactor":0,
				"roughnessFactor":0.5
			}
		},
		{
			"doubleSided":true,
			"name":"Material.013",
			"pbrMetallicRoughness":{
				"baseColorFactor":[
					0.015518968924880028,
					0.09462449699640274,
					0,
					1
				],
				"metallicFactor":0,
				"roughnessFactor":0
			}
		},
		{
			"doubleSided":true,
			"name":"Material.014",
			"pbrMetallicRoughness":{
				"baseColorTexture":{
					"index":1
				},
				"metallicFactor":0,
				"roughnessFactor":0.8070865869522095
			}
		}
	],
	"meshes":[
		{
			"name":"Plane.001",
			"primitives":[
				{
					"attributes":{
						"POSITION":0,
						"NORMAL":1,
						"TEXCOORD_0":2
					},
					"indices":3,
					"material":0
				}
			]
		},
		{
			"name":"Mesh_0.002",
			"primitives":[
				{
					"attributes":{
						"POSITION":4,
						"NORMAL":5,
						"TEXCOORD_0":6
					},
					"indices":7,
					"material":1
				}
			]
		},
		{
			"name":"Cube.003",
			"primitives":[
				{
					"attributes":{
						"POSITION":8,
						"NORMAL":9,
						"TEXCOORD_0":10
					},
					"indices":11,
					"material":2
				}
			]
		},
		{
			"name":"Cube.004",
			"primitives":[
				{
					"attributes":{
						"POSITION":12,
						"NORMAL":13,
						"TEXCOORD_0":14
					},
					"indices":15,
					"material":3
				},
				{
					"attributes":{
						"POSITION":16,
						"NORMAL":17,
						"TEXCOORD_0":18
					},
					"indices":19,
					"material":4
				}
			]
		},
		{
			"name":"Cube.006",
			"primitives":[
				{
					"attributes":{
						"POSITION":20,
						"NORMAL":21,
						"TEXCOORD_0":22
					},
					"indices":23,
					"material":5
				}
			]
		},
		{
			"name":"Cube.007",
			"primitives":[
				{
					"attributes":{
						"POSITION":24,
						"NORMAL":25,
						"TEXCOORD_0":26
					},
					"indices":11,
					"material":2
				}
			]
		},
		{
			"name":"Cube.008",
			"primitives":[
				{
					"attributes":{
						"POSITION":27,
						"NORMAL":28,
						"TEXCOORD_0":29
					},
					"indices":30,
					"material":6
				},
				{
					"attributes":{
						"POSITION":31,
						"NORMAL":32,
						"TEXCOORD_0":33
					},
					"indices":34,
					"material":7
				}
			]
		}
	],
	"textures":[
		{
			"sampler":0,
			"source":0
		},
		{
			"sampler":0,
			"source":1
		}
	],
	"images":[
		{
			"bufferView":8,
			"mimeType":"image/png",
			"name":"Image_0"
		},
		{
			"bufferView":36,
			"mimeType":"image/png",
			"name":"trunkTexture"
		}
	],
	"accessors":[
		{
			"bufferView":0,
			"componentType":5126,
			"count":4,
			"max":[
				250,
				0,
				750
			],
			"min":[
				-250,
				0,
				250
			],
			"type":"VEC3"
		},
		{
			"bufferView":1,
			"componentType":5126,
			"count":4,
			"type":"VEC3"
		},
		{
			"bufferView":2,
			"componentType":5126,
			"count":4,
			"type":"VEC2"
		},
		{
			"bufferView":3,
			"componentType":5123,
			"count":6,
			"type":"SCALAR"
		},
		{
			"bufferView":4,
			"componentType":5126,
			"count":11880,
			"max":[
				28,
				28,
				40
			],
			"min":[
				3,
				3,
				0
			],
			"type":"VEC3"
		},
		{
			"bufferView":5,
			"componentType":5126,
			"count":11880,
			"type":"VEC3"
		},
		{
			"bufferView":6,
			"componentType":5126,
			"count":11880,
			"type":"VEC2"
		},
		{
			"bufferView":7,
			"componentType":5123,
			"count":17820,
			"type":"SCALAR"
		},
		{
			"bufferView":9,
			"componentType":5126,
			"count":290,
			"max":[
				35.31560516357422,
				1.9415982961654663,
				34.68067932128906
			],
			"min":[
				-19.446380615234375,
				-1.9660019874572754,
				-17.077104568481445
			],
			"type":"VEC3"
		},
		{
			"bufferView":10,
			"componentType":5126,
			"count":290,
			"type":"VEC3"
		},
		{
			"bufferView":11,
			"componentType":5126,
			"count":290,
			"type":"VEC2"
		},
		{
			"bufferView":12,
			"componentType":5123,
			"count":396,
			"type":"SCALAR"
		},
		{
			"bufferView":13,
			"componentType":5126,
			"count":148,
			"max":[
				1.3003654479980469,
				5.031484127044678,
				12.359039306640625
			],
			"min":[
				-14.629276275634766,
				-0.2442488670349121,
				-1.4425926208496094
			],
			"type":"VEC3"
		},
		{
			"bufferView":14,
			"componentType":5126,
			"count":148,
			"type":"VEC3"
		},
		{
			"bufferView":15,
			"componentType":5126,
			"count":148,
			"type":"VEC2"
		},
		{
			"bufferView":16,
			"componentType":5123,
			"count":216,
			"type":"SCALAR"
		},
		{
			"bufferView":17,
			"componentType":5126,
			"count":24,
			"max":[
				-0.7773408889770508,
				4.480965614318848,
				11.05003547668457
			],
			"min":[
				-13.4083251953125,
				-0.46378254890441895,
				-1.7746849060058594
			],
			"type":"VEC3"
		},
		{
			"bufferView":18,
			"componentType":5126,
			"count":24,
			"type":"VEC3"
		},
		{
			"bufferView":19,
			"componentType":5126,
			"count":24,
			"type":"VEC2"
		},
		{
			"bufferView":20,
			"componentType":5123,
			"count":36,
			"type":"SCALAR"
		},
		{
			"bufferView":21,
			"componentType":5126,
			"count":24,
			"max":[
				18.697097778320312,
				8.881317138671875,
				19.790315628051758
			],
			"min":[
				-18.806787490844727,
				-5.655303955078125,
				-19.092514038085938
			],
			"type":"VEC3"
		},
		{
			"bufferView":22,
			"componentType":5126,
			"count":24,
			"type":"VEC3"
		},
		{
			"bufferView":23,
			"componentType":5126,
			"count":24,
			"type":"VEC2"
		},
		{
			"bufferView":24,
			"componentType":5123,
			"count":36,
			"type":"SCALAR"
		},
		{
			"bufferView":25,
			"componentType":5126,
			"count":290,
			"max":[
				35.31560516357422,
				1.9415982961654663,
				34.68067932128906
			],
			"min":[
				-19.446380615234375,
				-1.9660019874572754,
				-17.077104568481445
			],
			"type":"VEC3"
		},
		{
			"bufferView":26,
			"componentType":5126,
			"count":290,
			"type":"VEC3"
		},
		{
			"bufferView":27,
			"componentType":5126,
			"count":290,
			"type":"VEC2"
		},
		{
			"bufferView":28,
			"componentType":5126,
			"count":52,
			"max":[
				5,
				11.950004577636719,
				28.176761627197266
			],
			"min":[
				-27.457950592041016,
				-5,
				-5
			],
			"type":"VEC3"
		},
		{
			"bufferView":29,
			"componentType":5126,
			"count":52,
			"type":"VEC3"
		},
		{
			"bufferView":30,
			"componentType":5126,
			"count":52,
			"type":"VEC2"
		},
		{
			"bufferView":31,
			"componentType":5123,
			"count":72,
			"type":"SCALAR"
		},
		{
			"bufferView":32,
			"componentType":5126,
			"count":236,
			"max":[
				2.2539868354797363,
				-3.655974864959717,
				17.549522399902344
			],
			"min":[
				-21.700138092041016,
				-37.00940704345703,
				1.343214750289917
			],
			"type":"VEC3"
		},
		{
			"bufferView":33,
			"componentType":5126,
			"count":236,
			"type":"VEC3"
		},
		{
			"bufferView":34,
			"componentType":5126,
			"count":236,
			"type":"VEC2"
		},
		{
			"bufferView":35,
			"componentType":5123,
			"count":252,
			"type":"SCALAR"
		}
	],
	"bufferViews":[
		{
			"buffer":0,
			"byteLength":48,
			"byteOffset":0,
			"target":34962
		},
		{
			"buffer":0,
			"byteLength":48,
			"byteOffset":48,
			"target":34962
		},
		{
			"buffer":0,
			"byteLength":32,
			"byteOffset":96,
			"target":34962
		},
		{
			"buffer":0,
			"byteLength":12,
			"byteOffset":128,
			"target":34963
		},
		{
			"buffer":0,
			"byteLength":142560,
			"byteOffset":140,
			"target":34962
		},
		{
			"buffer":0,
			"byteLength":142560,
			"byteOffset":142700,
			"target":34962
		},
		{
			"buffer":0,
			"byteLength":95040,
			"byteOffset":285260,
			"target":34962
		},
		{
			"buffer":0,
			"byteLength":35640,
			"byteOffset":380300,
			"target":34963
		},
		{
			"buffer":0,
			"byteLength":96,
			"byteOffset":415940
		},
		{
			"buffer":0,
			"byteLength":3480,
			"byteOffset":416036,
			"target":34962
		},
		{
			"buffer":0,
			"byteLength":3480,
			"byteOffset":419516,
			"target":34962
		},
		{
			"buffer":0,
			"byteLength":2320,
			"byteOffset":422996,
			"target":34962
		},
		{
			"buffer":0,
			"byteLength":792,
			"byteOffset":425316,
			"target":34963
		},
		{
			"buffer":0,
			"byteLength":1776,
			"byteOffset":426108,
			"target":34962
		},
		{
			"buffer":0,
			"byteLength":1776,
			"byteOffset":427884,
			"target":34962
		},
		{
			"buffer":0,
			"byteLength":1184,
			"byteOffset":429660,
			"target":34962
		},
		{
			"buffer":0,
			"byteLength":432,
			"byteOffset":430844,
			"target":34963
		},
		{
			"buffer":0,
			"byteLength":288,
			"byteOffset":431276,
			"target":34962
		},
		{
			"buffer":0,
			"byteLength":288,
			"byteOffset":431564,
			"target":34962
		},
		{
			"buffer":0,
			"byteLength":192,
			"byteOffset":431852,
			"target":34962
		},
		{
			"buffer":0,
			"byteLength":72,
			"byteOffset":432044,
			"target":34963
		},
		{
			"buffer":0,
			"byteLength":288,
			"byteOffset":432116,
			"target":34962
		},
		{
			"buffer":0,
			"byteLength":288,
			"byteOffset":432404,
			"target":34962
		},
		{
			"buffer":0,
			"byteLength":192,
			"byteOffset":432692,
			"target":34962
		},
		{
			"buffer":0,
			"byteLength":72,
			"byteOffset":432884,
			"target":34963
		},
		{
			"buffer":0,
			"byteLength":3480,
			"byteOffset":432956,
			"target":34962
		},
		{
			"buffer":0,
			"byteLength":3480,
			"byteOffset":436436,
			"target":34962
		},
		{
			"buffer":0,
			"byteLength":2320,
			"byteOffset":439916,
			"target":34962
		},
		{
			"buffer":0,
			"byteLength":624,
			"byteOffset":442236,
			"target":34962
		},
		{
			"buffer":0,
			"byteLength":624,
			"byteOffset":442860,
			"target":34962
		},
		{
			"buffer":0,
			"byteLength":416,
			"byteOffset":443484,
			"target":34962
		},
		{
			"buffer":0,
			"byteLength":144,
			"byteOffset":443900,
			"target":34963
		},
		{
			"buffer":0,
			"byteLength":2832,
			"byteOffset":444044,
			"target":34962
		},
		{
			"buffer":0,
			"byteLength":2832,
			"byteOffset":446876,
			"target":34962
		},
		{
			"buffer":0,
			"byteLength":1888,
			"byteOffset":449708,
			"target":34962
		},
		{
			"buffer":0,
			"byteLength":504,
			"byteOffset":451596,
			"target":34963
		},
		{
			"buffer":0,
			"byteLength":56625,
			"byteOffset":452100
		}
	],
	"samplers":[
		{
			"magFilter":9729,
			"minFilter":9987
		}
	],
	"buffers":[
		{
			"byteLength":508728,
			"uri":"data:application/octet-stream;base64,"
		}
	]
}
