{
  "asset": {
    "copyright": "Simon Potocnak",
    "generator": "Khronos glTF Blender I/O v3.6.27",
    "version": "2.0"
  },
  "scene": 0,
  "scenes": [
    {
      "name": "Scene",
      "nodes": [
        0, 1, 2, 3, 4, 5, 6, 7, 8, 9, 10, 11, 12, 13, 14, 15, 16, 17, 18, 19,
        20, 21, 22, 23, 24, 25, 26, 27, 28, 29
      ]
    }
  ],
  "nodes": [
    {
      "name": "DeadTree.001",
      "rotation": [
        -0.7314931750297546, -0.052765294909477234, -0.05697780102491379,
        0.6774120926856995
      ],
      "scale": [34.74650573730469, 34.74650192260742, 34.74650573730469],
      "translation": [-61.98246383666992, 3.2144651412963867, 341.288330078125]
    },
    {
      "mesh": 0,
      "name": "MR",
      "scale": [0.4413300156593323, 0.4413300156593323, 0.4413300156593323],
      "translation": [
        -230.24261474609375, 17.617538452148438, 5.711742401123047
      ]
    },
    {
      "mesh": 1,
      "name": "Cube.201",
      "rotation": [0, -0.5266053676605225, 0, 0.850109875202179],
      "scale": [0.7692145109176636, 0.2745054066181183, 0.6552045345306396],
      "translation": [-77.17732238769531, 66.79977416992188, -77.00112915039062]
    },
    {
      "mesh": 2,
      "name": "Cube.202",
      "rotation": [0, -0.5266053676605225, 0, 0.850109875202179],
      "scale": [0.2083578109741211, 0.40976864099502563, 0.17585690319538116],
      "translation": [
        -78.57704162597656, 40.266143798828125, -75.04034423828125
      ]
    },
    {
      "mesh": 1,
      "name": "Cube.203",
      "rotation": [0, -0.5266053676605225, 0, 0.850109875202179],
      "scale": [0.7692145109176636, 0.2745054066181183, 0.6552045345306396],
      "translation": [86.39544677734375, 66.3075942993164, -92.7637939453125]
    },
    {
      "mesh": 2,
      "name": "Cube.204",
      "rotation": [0, -0.5266053676605225, 0, 0.850109875202179],
      "scale": [0.2083578109741211, 0.40976864099502563, 0.17585690319538116],
      "translation": [84.9957275390625, 39.773963928222656, -90.80300903320312]
    },
    {
      "mesh": 3,
      "name": "pond.001",
      "scale": [-10.576299667358398, -10.576299667358398, -10.576299667358398],
      "translation": [46.558624267578125, 18.5098876953125, -54.2545051574707]
    },
    {
      "mesh": 4,
      "name": "Trunt_top.004",
      "rotation": [
        -0.6910633444786072, -0.630988597869873, 0.14977137744426727,
        0.31914472579956055
      ],
      "scale": [0.7953281998634338, 0.7953281998634338, 0.7953283190727234],
      "translation": [-39.26814270019531, 8.104333877563477, -46.9361686706543]
    },
    {
      "mesh": 4,
      "name": "Trunt_top.003",
      "rotation": [
        0.626824676990509, 0.6890767216682434, 0.3272470533847809,
        0.15866172313690186
      ],
      "scale": [0.7953284382820129, 0.7953281998634338, 0.7953284978866577],
      "translation": [-67.944580078125, 8.1813383102417, 73.72337341308594]
    },
    {
      "mesh": 5,
      "name": "TREE 02.002",
      "rotation": [
        -0.6075665354728699, 0.36174988746643066, 0.3617500364780426,
        0.6075663566589355
      ],
      "scale": [1.6105331182479858, 1.6105334758758545, 1.610533356666565],
      "translation": [13.44696044921875, 17.61754035949707, 50.10966110229492]
    },
    {
      "mesh": 6,
      "name": "Rock.003",
      "scale": [0.4413300156593323, 0.4413300156593323, 0.4413300156593323],
      "translation": [
        21.550994873046875, 17.725330352783203, 26.720684051513672
      ]
    },
    {
      "mesh": 6,
      "name": "Cube.067",
      "scale": [0.4413300156593323, 0.4413300156593323, 0.4413300156593323],
      "translation": [78.90847778320312, 17.725330352783203, -7.386707305908203]
    },
    {
      "mesh": 6,
      "name": "Cube.130",
      "scale": [0.4413300156593323, 0.4413300156593323, 0.4413300156593323],
      "translation": [
        42.450836181640625, 17.725330352783203, 19.344724655151367
      ]
    },
    {
      "mesh": 7,
      "name": "Cube.175",
      "rotation": [0, -0.2716379761695862, 0, 0.9623994827270508],
      "scale": [0.37645307183265686, 0.3764530122280121, 0.1568954437971115],
      "translation": [
        6.3780059814453125, 17.339622497558594, -10.421042442321777
      ]
    },
    {
      "mesh": 7,
      "name": "Cube.176",
      "rotation": [0, -0.2716379761695862, 0, 0.9623994827270508],
      "scale": [0.37645307183265686, 0.3764530122280121, 0.1568954437971115],
      "translation": [-38.90623474121094, 17.339622497558594, 49.14175033569336]
    },
    {
      "mesh": 7,
      "name": "Cube.188",
      "rotation": [0, 0.11986523121595383, 0, 0.992790162563324],
      "scale": [0.3764530420303345, 0.3764530122280121, 0.15689541399478912],
      "translation": [-6.307342529296875, 17.436019897460938, 83.31996154785156]
    },
    {
      "mesh": 6,
      "name": "Cube.189",
      "scale": [0.4413300156593323, 0.4413300156593323, 0.4413300156593323],
      "translation": [80.12884521484375, 17.725330352783203, 88.06163024902344]
    },
    {
      "mesh": 6,
      "name": "Cube.190",
      "scale": [0.4413300156593323, 0.4413300156593323, 0.4413300156593323],
      "translation": [
        34.813873291015625, 17.725330352783203, 104.36396789550781
      ]
    },
    {
      "mesh": 6,
      "name": "Cube.191",
      "scale": [0.4413300156593323, 0.4413300156593323, 0.4413300156593323],
      "translation": [
        -31.776962280273438, 17.725330352783203, 94.96940612792969
      ]
    },
    {
      "mesh": 6,
      "name": "Cube.192",
      "scale": [0.4413300156593323, 0.4413300156593323, 0.4413300156593323],
      "translation": [90.07601928710938, 17.725330352783203, 60.15427017211914]
    },
    {
      "mesh": 6,
      "name": "Cube.193",
      "scale": [0.4413300156593323, 0.4413300156593323, 0.4413300156593323],
      "translation": [
        92.83914184570312, 17.725330352783203, -10.748394012451172
      ]
    },
    {
      "mesh": 6,
      "name": "Cube.194",
      "scale": [0.4413300156593323, 0.4413300156593323, 0.4413300156593323],
      "translation": [
        4.850982666015625, 17.725330352783203, -62.527652740478516
      ]
    },
    {
      "mesh": 6,
      "name": "Cube.195",
      "scale": [0.4413300156593323, 0.4413300156593323, 0.4413300156593323],
      "translation": [
        -70.73675537109375, 17.725330352783203, -60.86979293823242
      ]
    },
    {
      "mesh": 6,
      "name": "Cube.196",
      "scale": [0.4413300156593323, 0.4413300156593323, 0.4413300156593323],
      "translation": [
        -93.94683837890625, 17.725330352783203, -30.19930648803711
      ]
    },
    {
      "mesh": 6,
      "name": "Cube.197",
      "scale": [0.4413300156593323, 0.4413300156593323, 0.4413300156593323],
      "translation": [
        -105.27557373046875, 17.725330352783203, 34.45737838745117
      ]
    },
    {
      "mesh": 6,
      "name": "Cube.198",
      "scale": [0.4413300156593323, 0.4413300156593323, 0.4413300156593323],
      "translation": [
        -60.789581298828125, 17.725330352783203, 43.57563018798828
      ]
    },
    {
      "mesh": 6,
      "name": "Cube.199",
      "scale": [0.4413300156593323, 0.4413300156593323, 0.4413300156593323],
      "translation": [-56.36860656738281, 17.725330352783203, 5.721076965332031]
    },
    {
      "mesh": 6,
      "name": "Cube.200",
      "scale": [0.4413300156593323, 0.4413300156593323, 0.4413300156593323],
      "translation": [
        21.550994873046875, 17.725330352783203, 26.720684051513672
      ]
    },
    {
      "mesh": 6,
      "name": "Cube.205",
      "scale": [3.6056206226348877, 3.6056206226348877, 3.6056206226348877],
      "translation": [100.03482055664062, 18.747291564941406, 45.51348114013672]
    },
    {
      "mesh": 7,
      "name": "Cube.206",
      "rotation": [0, 0.11986524611711502, 0, 0.992790162563324],
      "scale": [0.5230980515480042, 0.5230981707572937, 0.21801318228244781],
      "translation": [63.906646728515625, 18.438125610351562, 68.15214538574219]
    }
  ],
  "materials": [
    {
      "doubleSided": true,
      "name": "Material.035",
      "pbrMetallicRoughness": {
        "baseColorFactor": [0.800000011920929, 0.09000000357627869, 0, 1],
        "metallicFactor": 0.19685038924217224,
        "roughnessFactor": 0.9921259880065918
      }
    },
    {
      "doubleSided": true,
      "name": "Material.153",
      "pbrMetallicRoughness": {
        "baseColorFactor": [0.024903491139411926, 0.046961210668087006, 0, 1],
        "metallicFactor": 0,
        "roughnessFactor": 0
      }
    },
    {
      "name": "Material.036",
      "pbrMetallicRoughness": {
        "baseColorTexture": {
          "index": 0
        },
        "metallicFactor": 0,
        "roughnessFactor": 0.6968504190444946
      }
    },
    {
      "alphaMode": "BLEND",
      "doubleSided": true,
      "name": "Material.037",
      "pbrMetallicRoughness": {
        "baseColorFactor": [0, 0.5325319766998291, 0.8000000715255737, 1],
        "metallicFactor": 0.8188976645469666,
        "roughnessFactor": 0.5629920959472656
      }
    },
    {
      "name": "Material.041",
      "pbrMetallicRoughness": {
        "baseColorTexture": {
          "index": 1
        },
        "metallicFactor": 0.20000000298023224,
        "roughnessFactor": 0.5
      }
    },
    {
      "name": "Material.144",
      "pbrMetallicRoughness": {
        "baseColorTexture": {
          "index": 2
        },
        "metallicFactor": 0.31023621559143066,
        "roughnessFactor": 0
      }
    },
    {
      "doubleSided": true,
      "name": "Material.135",
      "pbrMetallicRoughness": {
        "baseColorFactor": [
          0.06071946769952774, 0.06071946769952774, 0.06071946769952774, 1
        ],
        "metallicFactor": 0,
        "roughnessFactor": 0.5
      }
    },
    {
      "doubleSided": true,
      "name": "Material.134",
      "pbrMetallicRoughness": {
        "baseColorFactor": [
          0.06071946769952774, 0.06071946769952774, 0.06071946769952774, 1
        ],
        "metallicFactor": 0,
        "roughnessFactor": 0.5
      }
    },
    {
      "doubleSided": true,
      "name": "Material.042",
      "pbrMetallicRoughness": {
        "baseColorFactor": [
          0.06071845814585686, 0.06071845814585686, 0.06071845814585686, 1
        ],
        "metallicFactor": 0,
        "roughnessFactor": 0.5
      }
    }
  ],
  "meshes": [
    {
      "name": "Plane.022",
      "primitives": [
        {
          "attributes": {
            "POSITION": 0,
            "NORMAL": 1,
            "TEXCOORD_0": 2
          },
          "indices": 3,
          "material": 0
        }
      ]
    },
    {
      "name": "Cube.026",
      "primitives": [
        {
          "attributes": {
            "POSITION": 4,
            "NORMAL": 5,
            "TEXCOORD_0": 6
          },
          "indices": 7,
          "material": 1
        }
      ]
    },
    {
      "name": "Cube.027",
      "primitives": [
        {
          "attributes": {
            "POSITION": 8,
            "NORMAL": 9,
            "TEXCOORD_0": 10
          },
          "indices": 11,
          "material": 2
        }
      ]
    },
    {
      "name": "Plane.003",
      "primitives": [
        {
          "attributes": {
            "POSITION": 12,
            "NORMAL": 13,
            "TEXCOORD_0": 14
          },
          "indices": 15,
          "material": 3
        }
      ]
    },
    {
      "name": "Mesh_10.004",
      "primitives": [
        {
          "attributes": {
            "POSITION": 16,
            "NORMAL": 17,
            "TEXCOORD_0": 18
          },
          "indices": 19,
          "material": 4
        },
        {
          "attributes": {
            "POSITION": 20,
            "NORMAL": 21,
            "TEXCOORD_0": 22
          },
          "indices": 23,
          "material": 2
        }
      ]
    },
    {
      "name": "Mesh_0.007",
      "primitives": [
        {
          "attributes": {
            "POSITION": 24,
            "NORMAL": 25,
            "TEXCOORD_0": 26
          },
          "indices": 27,
          "material": 5
        }
      ]
    },
    {
      "name": "Cube.024",
      "primitives": [
        {
          "attributes": {
            "POSITION": 28,
            "NORMAL": 29,
            "TEXCOORD_0": 30
          },
          "indices": 31,
          "material": 6
        },
        {
          "attributes": {
            "POSITION": 32,
            "NORMAL": 33,
            "TEXCOORD_0": 34
          },
          "indices": 35,
          "material": 7
        }
      ]
    },
    {
      "name": "Cube.023",
      "primitives": [
        {
          "attributes": {
            "POSITION": 36,
            "NORMAL": 37,
            "TEXCOORD_0": 38
          },
          "indices": 39,
          "material": 8
        }
      ]
    }
  ],
  "textures": [
    {
      "sampler": 0,
      "source": 0
    },
    {
      "sampler": 0,
      "source": 1
    },
    {
      "sampler": 0,
      "source": 1
    }
  ],
  "images": [
    {
      "bufferView": 12,
      "mimeType": "image/png",
      "name": "trunkTexture"
    },
    {
      "bufferView": 21,
      "mimeType": "image/png",
      "name": "Image_0"
    }
  ],
  "accessors": [
    {
      "bufferView": 0,
      "componentType": 5126,
      "count": 4,
      "max": [750, 0, 250],
      "min": [250, 0, -250],
      "type": "VEC3"
    },
    {
      "bufferView": 1,
      "componentType": 5126,
      "count": 4,
      "type": "VEC3"
    },
    {
      "bufferView": 2,
      "componentType": 5126,
      "count": 4,
      "type": "VEC2"
    },
    {
      "bufferView": 3,
      "componentType": 5123,
      "count": 6,
      "type": "SCALAR"
    },
    {
      "bufferView": 4,
      "componentType": 5126,
      "count": 205,
      "max": [32.34236145019531, 22.8480224609375, 36.72749328613281],
      "min": [-32.34236145019531, -18.200550079345703, -36.72749328613281],
      "type": "VEC3"
    },
    {
      "bufferView": 5,
      "componentType": 5126,
      "count": 205,
      "type": "VEC3"
    },
    {
      "bufferView": 6,
      "componentType": 5126,
      "count": 205,
      "type": "VEC2"
    },
    {
      "bufferView": 7,
      "componentType": 5123,
      "count": 324,
      "type": "SCALAR"
    },
    {
      "bufferView": 8,
      "componentType": 5126,
      "count": 24,
      "max": [27.33014678955078, 60.097740173339844, 24.027786254882812],
      "min": [-27.33014678955078, -60.097740173339844, -24.027786254882812],
      "type": "VEC3"
    },
    {
      "bufferView": 9,
      "componentType": 5126,
      "count": 24,
      "type": "VEC3"
    },
    {
      "bufferView": 10,
      "componentType": 5126,
      "count": 24,
      "type": "VEC2"
    },
    {
      "bufferView": 11,
      "componentType": 5123,
      "count": 36,
      "type": "SCALAR"
    },
    {
      "bufferView": 13,
      "componentType": 5126,
      "count": 43,
      "max": [3.9482998847961426, 0.0077082873322069645, 3.7095086574554443],
      "min": [-4.2705159187316895, -0.03443143889307976, -4.2283101081848145],
      "type": "VEC3"
    },
    {
      "bufferView": 14,
      "componentType": 5126,
      "count": 43,
      "type": "VEC3"
    },
    {
      "bufferView": 15,
      "componentType": 5126,
      "count": 43,
      "type": "VEC2"
    },
    {
      "bufferView": 16,
      "componentType": 5123,
      "count": 96,
      "type": "SCALAR"
    },
    {
      "bufferView": 17,
      "componentType": 5126,
      "count": 9068,
      "max": [28, 12, 8.000001907348633],
      "min": [3, -13, -16],
      "type": "VEC3"
    },
    {
      "bufferView": 18,
      "componentType": 5126,
      "count": 9068,
      "type": "VEC3"
    },
    {
      "bufferView": 19,
      "componentType": 5126,
      "count": 9068,
      "type": "VEC2"
    },
    {
      "bufferView": 20,
      "componentType": 5123,
      "count": 13602,
      "type": "SCALAR"
    },
    {
      "bufferView": 22,
      "componentType": 5126,
      "count": 36,
      "max": [21.383319854736328, 2.9506475925445557, -3.0058040618896484],
      "min": [13.878125190734863, -3.2438910007476807, -26.01219367980957],
      "type": "VEC3"
    },
    {
      "bufferView": 23,
      "componentType": 5126,
      "count": 36,
      "type": "VEC3"
    },
    {
      "bufferView": 24,
      "componentType": 5126,
      "count": 36,
      "type": "VEC2"
    },
    {
      "bufferView": 25,
      "componentType": 5123,
      "count": 36,
      "type": "SCALAR"
    },
    {
      "bufferView": 26,
      "componentType": 5126,
      "count": 11880,
      "max": [28, 28, 40],
      "min": [3, 3, 0],
      "type": "VEC3"
    },
    {
      "bufferView": 27,
      "componentType": 5126,
      "count": 11880,
      "type": "VEC3"
    },
    {
      "bufferView": 28,
      "componentType": 5126,
      "count": 11880,
      "type": "VEC2"
    },
    {
      "bufferView": 29,
      "componentType": 5123,
      "count": 17820,
      "type": "SCALAR"
    },
    {
      "bufferView": 30,
      "componentType": 5126,
      "count": 148,
      "max": [1.3003654479980469, 5.031484127044678, 12.359039306640625],
      "min": [-14.629276275634766, -0.2442488670349121, -1.4425926208496094],
      "type": "VEC3"
    },
    {
      "bufferView": 31,
      "componentType": 5126,
      "count": 148,
      "type": "VEC3"
    },
    {
      "bufferView": 32,
      "componentType": 5126,
      "count": 148,
      "type": "VEC2"
    },
    {
      "bufferView": 33,
      "componentType": 5123,
      "count": 216,
      "type": "SCALAR"
    },
    {
      "bufferView": 34,
      "componentType": 5126,
      "count": 24,
      "max": [-0.7773408889770508, 4.480965614318848, 11.05003547668457],
      "min": [-13.4083251953125, -0.46378254890441895, -1.7746849060058594],
      "type": "VEC3"
    },
    {
      "bufferView": 35,
      "componentType": 5126,
      "count": 24,
      "type": "VEC3"
    },
    {
      "bufferView": 36,
      "componentType": 5126,
      "count": 24,
      "type": "VEC2"
    },
    {
      "bufferView": 37,
      "componentType": 5123,
      "count": 36,
      "type": "SCALAR"
    },
    {
      "bufferView": 38,
      "componentType": 5126,
      "count": 24,
      "max": [18.697097778320312, 8.881317138671875, 19.790315628051758],
      "min": [-18.806787490844727, -5.655303955078125, -19.092514038085938],
      "type": "VEC3"
    },
    {
      "bufferView": 39,
      "componentType": 5126,
      "count": 24,
      "type": "VEC3"
    },
    {
      "bufferView": 40,
      "componentType": 5126,
      "count": 24,
      "type": "VEC2"
    },
    {
      "bufferView": 41,
      "componentType": 5123,
      "count": 36,
      "type": "SCALAR"
    }
  ],
  "bufferViews": [
    {
      "buffer": 0,
      "byteLength": 48,
      "byteOffset": 0,
      "target": 34962
    },
    {
      "buffer": 0,
      "byteLength": 48,
      "byteOffset": 48,
      "target": 34962
    },
    {
      "buffer": 0,
      "byteLength": 32,
      "byteOffset": 96,
      "target": 34962
    },
    {
      "buffer": 0,
      "byteLength": 12,
      "byteOffset": 128,
      "target": 34963
    },
    {
      "buffer": 0,
      "byteLength": 2460,
      "byteOffset": 140,
      "target": 34962
    },
    {
      "buffer": 0,
      "byteLength": 2460,
      "byteOffset": 2600,
      "target": 34962
    },
    {
      "buffer": 0,
      "byteLength": 1640,
      "byteOffset": 5060,
      "target": 34962
    },
    {
      "buffer": 0,
      "byteLength": 648,
      "byteOffset": 6700,
      "target": 34963
    },
    {
      "buffer": 0,
      "byteLength": 288,
      "byteOffset": 7348,
      "target": 34962
    },
    {
      "buffer": 0,
      "byteLength": 288,
      "byteOffset": 7636,
      "target": 34962
    },
    {
      "buffer": 0,
      "byteLength": 192,
      "byteOffset": 7924,
      "target": 34962
    },
    {
      "buffer": 0,
      "byteLength": 72,
      "byteOffset": 8116,
      "target": 34963
    },
    {
      "buffer": 0,
      "byteLength": 56625,
      "byteOffset": 8188
    },
    {
      "buffer": 0,
      "byteLength": 516,
      "byteOffset": 64816,
      "target": 34962
    },
    {
      "buffer": 0,
      "byteLength": 516,
      "byteOffset": 65332,
      "target": 34962
    },
    {
      "buffer": 0,
      "byteLength": 344,
      "byteOffset": 65848,
      "target": 34962
    },
    {
      "buffer": 0,
      "byteLength": 192,
      "byteOffset": 66192,
      "target": 34963
    },
    {
      "buffer": 0,
      "byteLength": 108816,
      "byteOffset": 66384,
      "target": 34962
    },
    {
      "buffer": 0,
      "byteLength": 108816,
      "byteOffset": 175200,
      "target": 34962
    },
    {
      "buffer": 0,
      "byteLength": 72544,
      "byteOffset": 284016,
      "target": 34962
    },
    {
      "buffer": 0,
      "byteLength": 27204,
      "byteOffset": 356560,
      "target": 34963
    },
    {
      "buffer": 0,
      "byteLength": 96,
      "byteOffset": 383764
    },
    {
      "buffer": 0,
      "byteLength": 432,
      "byteOffset": 383860,
      "target": 34962
    },
    {
      "buffer": 0,
      "byteLength": 432,
      "byteOffset": 384292,
      "target": 34962
    },
    {
      "buffer": 0,
      "byteLength": 288,
      "byteOffset": 384724,
      "target": 34962
    },
    {
      "buffer": 0,
      "byteLength": 72,
      "byteOffset": 385012,
      "target": 34963
    },
    {
      "buffer": 0,
      "byteLength": 142560,
      "byteOffset": 385084,
      "target": 34962
    },
    {
      "buffer": 0,
      "byteLength": 142560,
      "byteOffset": 527644,
      "target": 34962
    },
    {
      "buffer": 0,
      "byteLength": 95040,
      "byteOffset": 670204,
      "target": 34962
    },
    {
      "buffer": 0,
      "byteLength": 35640,
      "byteOffset": 765244,
      "target": 34963
    },
    {
      "buffer": 0,
      "byteLength": 1776,
      "byteOffset": 800884,
      "target": 34962
    },
    {
      "buffer": 0,
      "byteLength": 1776,
      "byteOffset": 802660,
      "target": 34962
    },
    {
      "buffer": 0,
      "byteLength": 1184,
      "byteOffset": 804436,
      "target": 34962
    },
    {
      "buffer": 0,
      "byteLength": 432,
      "byteOffset": 805620,
      "target": 34963
    },
    {
      "buffer": 0,
      "byteLength": 288,
      "byteOffset": 806052,
      "target": 34962
    },
    {
      "buffer": 0,
      "byteLength": 288,
      "byteOffset": 806340,
      "target": 34962
    },
    {
      "buffer": 0,
      "byteLength": 192,
      "byteOffset": 806628,
      "target": 34962
    },
    {
      "buffer": 0,
      "byteLength": 72,
      "byteOffset": 806820,
      "target": 34963
    },
    {
      "buffer": 0,
      "byteLength": 288,
      "byteOffset": 806892,
      "target": 34962
    },
    {
      "buffer": 0,
      "byteLength": 288,
      "byteOffset": 807180,
      "target": 34962
    },
    {
      "buffer": 0,
      "byteLength": 192,
      "byteOffset": 807468,
      "target": 34962
    },
    {
      "buffer": 0,
      "byteLength": 72,
      "byteOffset": 807660,
      "target": 34963
    }
  ],
  "samplers": [
    {
      "magFilter": 9729,
      "minFilter": 9987
    }
  ],
  "buffers": [
    {
      "byteLength": 807732,
      "uri": "data:application/octet-stream;base64,"
    }
  ]
}
