{
	"asset":{
		"copyright":"Simon Potocnak",
		"generator":"Khronos glTF Blender I/O v3.6.27",
		"version":"2.0"
	},
	"scene":0,
	"scenes":[
		{
			"name":"Scene",
			"nodes":[
				0,
				1,
				3,
				5,
				6,
				7,
				8,
				9,
				10,
				11,
				15
			]
		}
	],
	"nodes":[
		{
			"mesh":0,
			"name":"ML",
			"scale":[
				0.4413300156593323,
				0.4413300156593323,
				0.4413300156593323
			],
			"translation":[
				221.6002960205078,
				17.617538452148438,
				3.626312255859375
			]
		},
		{
			"mesh":1,
			"name":"Mountain.005",
			"rotation":[
				-0.7095242738723755,
				0,
				0.7046809792518616,
				2.001780927685104e-07
			],
			"scale":[
				-1.9372971057891846,
				-38.01760482788086,
				-1.9372971057891846
			],
			"translation":[
				-76.49488830566406,
				10.98836898803711,
				46.49663543701172
			]
		},
		{
			"name":"CubikModel.obj.cleaner.materialmerger.gles.001",
			"translation":[
				3.33511306962464e-05,
				-5.816103657707572e-05,
				2.8459612622100394e-06
			]
		},
		{
			"children":[
				2
			],
			"name":"HumanBones.001",
			"rotation":[
				-7.225514855235815e-05,
				-0.7071066498756409,
				-0.70710688829422,
				7.225518493214622e-05
			],
			"scale":[
				0.69283127784729,
				0.6928310394287109,
				0.6928311586380005
			],
			"translation":[
				-66.49702453613281,
				17.64924430847168,
				158.09329223632812
			]
		},
		{
			"mesh":2,
			"name":"cube.001",
			"rotation":[
				0.2600723206996918,
				0.052867159247398376,
				0.20765365660190582,
				0.9415133595466614
			],
			"scale":[
				0.9760746359825134,
				0.9760746359825134,
				0.9760746359825134
			],
			"translation":[
				-1.6203542947769165,
				7.816501140594482,
				2.700507164001465
			]
		},
		{
			"children":[
				4
			],
			"name":"DeadTree.001",
			"rotation":[
				-0.7314931750297546,
				-0.052765294909477234,
				-0.05697780102491379,
				0.6774120926856995
			],
			"scale":[
				34.74650573730469,
				34.74650192260742,
				34.74650573730469
			],
			"translation":[
				-61.98246383666992,
				3.2144651412963867,
				341.288330078125
			]
		},
		{
			"mesh":3,
			"name":"Cube.129",
			"rotation":[
				0.19715698063373566,
				0.679064929485321,
				-0.6790648698806763,
				0.19715698063373566
			],
			"scale":[
				0.8983638286590576,
				0.8983638286590576,
				0.8983640074729919
			],
			"translation":[
				-86.32383728027344,
				117.50435638427734,
				11.168899536132812
			]
		},
		{
			"mesh":4,
			"name":"Cube.131",
			"rotation":[
				-0.18767473101615906,
				0.10756717622280121,
				-0.9059358239173889,
				0.3639887273311615
			],
			"scale":[
				0.9478129148483276,
				0.9478127360343933,
				0.9478127360343933
			],
			"translation":[
				-29.848567962646484,
				8.326992988586426,
				-47.2747802734375
			]
		},
		{
			"mesh":5,
			"name":"Cube.132",
			"scale":[
				1.7771894931793213,
				1.7771894931793213,
				1.7771894931793213
			],
			"translation":[
				-47.4649772644043,
				20.249845504760742,
				-32.852073669433594
			]
		},
		{
			"mesh":3,
			"name":"Cube.154",
			"rotation":[
				0.19715693593025208,
				0.679064929485321,
				-0.6790648698806763,
				0.19715693593025208
			],
			"scale":[
				1.5282315015792847,
				1.5282315015792847,
				1.5282316207885742
			],
			"translation":[
				-8.222759246826172,
				88.0677490234375,
				-102.7695541381836
			]
		},
		{
			"mesh":5,
			"name":"Cube.155",
			"scale":[
				1.3813083171844482,
				1.3813083171844482,
				1.3813083171844482
			],
			"translation":[
				-84.40217590332031,
				82.33529663085938,
				83.24585723876953
			]
		},
		{
			"mesh":6,
			"name":"Mountain.006",
			"rotation":[
				-0.7095242738723755,
				0,
				0.7046809792518616,
				2.001780927685104e-07
			],
			"scale":[
				-1.9372971057891846,
				-38.01760482788086,
				-1.9372971057891846
			],
			"translation":[
				-76.49488830566406,
				6.230947494506836,
				46.49663543701172
			]
		},
		{
			"mesh":7,
			"name":"Object_2.003",
			"scale":[
				1.4105342626571655,
				1.4105340242385864,
				1.4105342626571655
			],
			"translation":[
				-11.534540176391602,
				-29.821136474609375,
				-71.48861694335938
			]
		},
		{
			"mesh":7,
			"name":"Object_2.004",
			"scale":[
				1.4105342626571655,
				1.4105340242385864,
				1.4105342626571655
			],
			"translation":[
				51.649452209472656,
				-3.344752550125122,
				-8.909351348876953
			]
		},
		{
			"children":[
				12,
				13
			],
			"name":"CubikModel.obj.cleaner.materialmerger.gles.004",
			"translation":[
				2.4320950615219772e-05,
				-1.5793784768902697e-05,
				-3.010269210790284e-06
			]
		},
		{
			"children":[
				14
			],
			"name":"HumanBones.004",
			"rotation":[
				-7.225514855235815e-05,
				-0.7071066498756409,
				-0.70710688829422,
				7.225518493214622e-05
			],
			"scale":[
				0.69283127784729,
				0.6928310394287109,
				0.6928311586380005
			],
			"translation":[
				-32.843013763427734,
				89.4998779296875,
				60.81226348876953
			]
		}
	],
	"materials":[
		{
			"doubleSided":true,
			"name":"Material.031",
			"pbrMetallicRoughness":{
				"baseColorFactor":[
					0.800000011920929,
					0.09000000357627869,
					0,
					1
				],
				"metallicFactor":0.19685038924217224,
				"roughnessFactor":0.9921259880065918
			}
		},
		{
			"doubleSided":true,
			"name":"Material.032",
			"pbrMetallicRoughness":{
				"baseColorFactor":[
					0.08001189678907394,
					0.020650532096624374,
					0,
					1
				],
				"metallicFactor":0
			}
		},
		{
			"alphaCutoff":0.05000000074505806,
			"alphaMode":"MASK",
			"name":"Material_0.001",
			"pbrMetallicRoughness":{
				"baseColorTexture":{
					"index":0
				},
				"metallicFactor":0
			}
		},
		{
			"doubleSided":true,
			"name":"Material.033",
			"pbrMetallicRoughness":{
				"baseColorTexture":{
					"index":1
				},
				"metallicFactor":0,
				"roughnessFactor":0.8070865869522095
			}
		},
		{
			"doubleSided":true,
			"name":"Material.034",
			"pbrMetallicRoughness":{
				"baseColorFactor":[
					0.8000000715255737,
					0.25654336810112,
					0,
					1
				],
				"metallicFactor":0,
				"roughnessFactor":0.5
			}
		},
		{
			"doubleSided":true,
			"name":"Material.086",
			"pbrMetallicRoughness":{
				"baseColorFactor":[
					0.06071946769952774,
					0.06071946769952774,
					0.06071946769952774,
					1
				],
				"metallicFactor":0,
				"roughnessFactor":0.5
			}
		},
		{
			"doubleSided":true,
			"name":"Material.087",
			"pbrMetallicRoughness":{
				"baseColorFactor":[
					0.06071946769952774,
					0.06071946769952774,
					0.06071946769952774,
					1
				],
				"metallicFactor":0,
				"roughnessFactor":0.5
			}
		},
		{
			"doubleSided":true,
			"name":"Material.075",
			"pbrMetallicRoughness":{}
		},
		{
			"doubleSided":true,
			"name":"Element.004",
			"pbrMetallicRoughness":{
				"baseColorTexture":{
					"index":2
				},
				"metallicFactor":0.15980231761932373,
				"roughnessFactor":0.6821054816246033
			}
		}
	],
	"meshes":[
		{
			"name":"Plane.024",
			"primitives":[
				{
					"attributes":{
						"POSITION":0,
						"NORMAL":1,
						"TEXCOORD_0":2
					},
					"indices":3,
					"material":0
				}
			]
		},
		{
			"name":"Cube.060",
			"primitives":[
				{
					"attributes":{
						"POSITION":4,
						"NORMAL":5,
						"TEXCOORD_0":6
					},
					"indices":7,
					"material":1
				}
			]
		},
		{
			"name":"Mesh_2.001",
			"primitives":[
				{
					"attributes":{
						"POSITION":8,
						"NORMAL":9,
						"TEXCOORD_0":10
					},
					"indices":11,
					"material":2
				}
			]
		},
		{
			"name":"Cube.061",
			"primitives":[
				{
					"attributes":{
						"POSITION":12,
						"NORMAL":13,
						"TEXCOORD_0":14
					},
					"indices":15,
					"material":3
				},
				{
					"attributes":{
						"POSITION":16,
						"NORMAL":17,
						"TEXCOORD_0":18
					},
					"indices":19,
					"material":4
				}
			]
		},
		{
			"name":"Cube.062",
			"primitives":[
				{
					"attributes":{
						"POSITION":20,
						"NORMAL":21,
						"TEXCOORD_0":22
					},
					"indices":23,
					"material":3
				}
			]
		},
		{
			"name":"Cube.063",
			"primitives":[
				{
					"attributes":{
						"POSITION":24,
						"NORMAL":25,
						"TEXCOORD_0":26
					},
					"indices":27,
					"material":5
				},
				{
					"attributes":{
						"POSITION":28,
						"NORMAL":29,
						"TEXCOORD_0":30
					},
					"indices":31,
					"material":6
				}
			]
		},
		{
			"name":"Cube.066",
			"primitives":[
				{
					"attributes":{
						"POSITION":32,
						"NORMAL":33,
						"TEXCOORD_0":34
					},
					"indices":35,
					"material":7
				}
			]
		},
		{
			"name":"Object_0.007",
			"primitives":[
				{
					"attributes":{
						"POSITION":36,
						"NORMAL":37,
						"TEXCOORD_0":38
					},
					"indices":39,
					"material":8
				}
			]
		}
	],
	"textures":[
		{
			"sampler":0,
			"source":0
		},
		{
			"sampler":1,
			"source":1
		},
		{
			"sampler":2,
			"source":2
		}
	],
	"images":[
		{
			"bufferView":12,
			"mimeType":"image/png",
			"name":"Image_0"
		},
		{
			"bufferView":17,
			"mimeType":"image/png",
			"name":"trunkTexture"
		},
		{
			"bufferView":42,
			"mimeType":"image/png",
			"name":"Element_baseColor"
		}
	],
	"accessors":[
		{
			"bufferView":0,
			"componentType":5126,
			"count":4,
			"max":[
				-250,
				0,
				250
			],
			"min":[
				-750,
				0,
				-250
			],
			"type":"VEC3"
		},
		{
			"bufferView":1,
			"componentType":5126,
			"count":4,
			"type":"VEC3"
		},
		{
			"bufferView":2,
			"componentType":5126,
			"count":4,
			"type":"VEC2"
		},
		{
			"bufferView":3,
			"componentType":5123,
			"count":6,
			"type":"SCALAR"
		},
		{
			"bufferView":4,
			"componentType":5126,
			"count":306,
			"max":[
				35.31560516357422,
				1.9415982961654663,
				34.68067932128906
			],
			"min":[
				-19.446380615234375,
				-1.9660019874572754,
				-17.077104568481445
			],
			"type":"VEC3"
		},
		{
			"bufferView":5,
			"componentType":5126,
			"count":306,
			"type":"VEC3"
		},
		{
			"bufferView":6,
			"componentType":5126,
			"count":306,
			"type":"VEC2"
		},
		{
			"bufferView":7,
			"componentType":5123,
			"count":432,
			"type":"SCALAR"
		},
		{
			"bufferView":8,
			"componentType":5126,
			"count":7815,
			"max":[
				0.11587657779455185,
				1.1896382570266724,
				0.06364012509584427
			],
			"min":[
				-0.11306434869766235,
				-0.06553619354963303,
				-0.4870719015598297
			],
			"type":"VEC3"
		},
		{
			"bufferView":9,
			"componentType":5126,
			"count":7815,
			"type":"VEC3"
		},
		{
			"bufferView":10,
			"componentType":5126,
			"count":7815,
			"type":"VEC2"
		},
		{
			"bufferView":11,
			"componentType":5123,
			"count":8424,
			"type":"SCALAR"
		},
		{
			"bufferView":13,
			"componentType":5126,
			"count":289,
			"max":[
				4.284751892089844,
				6.1481170654296875,
				48.097900390625
			],
			"min":[
				-7.3465070724487305,
				-45.94908905029297,
				-7.527592658996582
			],
			"type":"VEC3"
		},
		{
			"bufferView":14,
			"componentType":5126,
			"count":289,
			"type":"VEC3"
		},
		{
			"bufferView":15,
			"componentType":5126,
			"count":289,
			"type":"VEC2"
		},
		{
			"bufferView":16,
			"componentType":5123,
			"count":342,
			"type":"SCALAR"
		},
		{
			"bufferView":18,
			"componentType":5126,
			"count":70,
			"max":[
				5.722416877746582,
				-11.2318696975708,
				5.719934463500977
			],
			"min":[
				-3.948216438293457,
				-21.129947662353516,
				3.003713369369507
			],
			"type":"VEC3"
		},
		{
			"bufferView":19,
			"componentType":5126,
			"count":70,
			"type":"VEC3"
		},
		{
			"bufferView":20,
			"componentType":5126,
			"count":70,
			"type":"VEC2"
		},
		{
			"bufferView":21,
			"componentType":5123,
			"count":96,
			"type":"SCALAR"
		},
		{
			"bufferView":22,
			"componentType":5126,
			"count":315,
			"max":[
				4.284751892089844,
				6.1481170654296875,
				48.097900390625
			],
			"min":[
				-7.3465070724487305,
				-45.94908905029297,
				-7.527592658996582
			],
			"type":"VEC3"
		},
		{
			"bufferView":23,
			"componentType":5126,
			"count":315,
			"type":"VEC3"
		},
		{
			"bufferView":24,
			"componentType":5126,
			"count":315,
			"type":"VEC2"
		},
		{
			"bufferView":25,
			"componentType":5123,
			"count":378,
			"type":"SCALAR"
		},
		{
			"bufferView":26,
			"componentType":5126,
			"count":148,
			"max":[
				1.3003654479980469,
				5.031484127044678,
				12.359039306640625
			],
			"min":[
				-14.629276275634766,
				-0.2442488670349121,
				-1.4425926208496094
			],
			"type":"VEC3"
		},
		{
			"bufferView":27,
			"componentType":5126,
			"count":148,
			"type":"VEC3"
		},
		{
			"bufferView":28,
			"componentType":5126,
			"count":148,
			"type":"VEC2"
		},
		{
			"bufferView":29,
			"componentType":5123,
			"count":216,
			"type":"SCALAR"
		},
		{
			"bufferView":30,
			"componentType":5126,
			"count":24,
			"max":[
				-0.7773408889770508,
				4.480965614318848,
				11.05003547668457
			],
			"min":[
				-13.4083251953125,
				-0.46378254890441895,
				-1.7746849060058594
			],
			"type":"VEC3"
		},
		{
			"bufferView":31,
			"componentType":5126,
			"count":24,
			"type":"VEC3"
		},
		{
			"bufferView":32,
			"componentType":5126,
			"count":24,
			"type":"VEC2"
		},
		{
			"bufferView":33,
			"componentType":5123,
			"count":36,
			"type":"SCALAR"
		},
		{
			"bufferView":34,
			"componentType":5126,
			"count":10,
			"max":[
				17.84429931640625,
				-1.9560470581054688,
				16.743362426757812
			],
			"min":[
				-17.84429931640625,
				-1.9560470581054688,
				-16.743362426757812
			],
			"type":"VEC3"
		},
		{
			"bufferView":35,
			"componentType":5126,
			"count":10,
			"type":"VEC3"
		},
		{
			"bufferView":36,
			"componentType":5126,
			"count":10,
			"type":"VEC2"
		},
		{
			"bufferView":37,
			"componentType":5123,
			"count":24,
			"type":"SCALAR"
		},
		{
			"bufferView":38,
			"componentType":5126,
			"count":2772,
			"max":[
				-0.49994850158691406,
				15.58135986328125,
				7.043295860290527
			],
			"min":[
				-17.923879623413086,
				-3.162708044052124,
				-1.031803011894226
			],
			"type":"VEC3"
		},
		{
			"bufferView":39,
			"componentType":5126,
			"count":2772,
			"type":"VEC3"
		},
		{
			"bufferView":40,
			"componentType":5126,
			"count":2772,
			"type":"VEC2"
		},
		{
			"bufferView":41,
			"componentType":5123,
			"count":3600,
			"type":"SCALAR"
		}
	],
	"bufferViews":[
		{
			"buffer":0,
			"byteLength":48,
			"byteOffset":0,
			"target":34962
		},
		{
			"buffer":0,
			"byteLength":48,
			"byteOffset":48,
			"target":34962
		},
		{
			"buffer":0,
			"byteLength":32,
			"byteOffset":96,
			"target":34962
		},
		{
			"buffer":0,
			"byteLength":12,
			"byteOffset":128,
			"target":34963
		},
		{
			"buffer":0,
			"byteLength":3672,
			"byteOffset":140,
			"target":34962
		},
		{
			"buffer":0,
			"byteLength":3672,
			"byteOffset":3812,
			"target":34962
		},
		{
			"buffer":0,
			"byteLength":2448,
			"byteOffset":7484,
			"target":34962
		},
		{
			"buffer":0,
			"byteLength":864,
			"byteOffset":9932,
			"target":34963
		},
		{
			"buffer":0,
			"byteLength":93780,
			"byteOffset":10796,
			"target":34962
		},
		{
			"buffer":0,
			"byteLength":93780,
			"byteOffset":104576,
			"target":34962
		},
		{
			"buffer":0,
			"byteLength":62520,
			"byteOffset":198356,
			"target":34962
		},
		{
			"buffer":0,
			"byteLength":16848,
			"byteOffset":260876,
			"target":34963
		},
		{
			"buffer":0,
			"byteLength":232,
			"byteOffset":277724
		},
		{
			"buffer":0,
			"byteLength":3468,
			"byteOffset":277956,
			"target":34962
		},
		{
			"buffer":0,
			"byteLength":3468,
			"byteOffset":281424,
			"target":34962
		},
		{
			"buffer":0,
			"byteLength":2312,
			"byteOffset":284892,
			"target":34962
		},
		{
			"buffer":0,
			"byteLength":684,
			"byteOffset":287204,
			"target":34963
		},
		{
			"buffer":0,
			"byteLength":56625,
			"byteOffset":287888
		},
		{
			"buffer":0,
			"byteLength":840,
			"byteOffset":344516,
			"target":34962
		},
		{
			"buffer":0,
			"byteLength":840,
			"byteOffset":345356,
			"target":34962
		},
		{
			"buffer":0,
			"byteLength":560,
			"byteOffset":346196,
			"target":34962
		},
		{
			"buffer":0,
			"byteLength":192,
			"byteOffset":346756,
			"target":34963
		},
		{
			"buffer":0,
			"byteLength":3780,
			"byteOffset":346948,
			"target":34962
		},
		{
			"buffer":0,
			"byteLength":3780,
			"byteOffset":350728,
			"target":34962
		},
		{
			"buffer":0,
			"byteLength":2520,
			"byteOffset":354508,
			"target":34962
		},
		{
			"buffer":0,
			"byteLength":756,
			"byteOffset":357028,
			"target":34963
		},
		{
			"buffer":0,
			"byteLength":1776,
			"byteOffset":357784,
			"target":34962
		},
		{
			"buffer":0,
			"byteLength":1776,
			"byteOffset":359560,
			"target":34962
		},
		{
			"buffer":0,
			"byteLength":1184,
			"byteOffset":361336,
			"target":34962
		},
		{
			"buffer":0,
			"byteLength":432,
			"byteOffset":362520,
			"target":34963
		},
		{
			"buffer":0,
			"byteLength":288,
			"byteOffset":362952,
			"target":34962
		},
		{
			"buffer":0,
			"byteLength":288,
			"byteOffset":363240,
			"target":34962
		},
		{
			"buffer":0,
			"byteLength":192,
			"byteOffset":363528,
			"target":34962
		},
		{
			"buffer":0,
			"byteLength":72,
			"byteOffset":363720,
			"target":34963
		},
		{
			"buffer":0,
			"byteLength":120,
			"byteOffset":363792,
			"target":34962
		},
		{
			"buffer":0,
			"byteLength":120,
			"byteOffset":363912,
			"target":34962
		},
		{
			"buffer":0,
			"byteLength":80,
			"byteOffset":364032,
			"target":34962
		},
		{
			"buffer":0,
			"byteLength":48,
			"byteOffset":364112,
			"target":34963
		},
		{
			"buffer":0,
			"byteLength":33264,
			"byteOffset":364160,
			"target":34962
		},
		{
			"buffer":0,
			"byteLength":33264,
			"byteOffset":397424,
			"target":34962
		},
		{
			"buffer":0,
			"byteLength":22176,
			"byteOffset":430688,
			"target":34962
		},
		{
			"buffer":0,
			"byteLength":7200,
			"byteOffset":452864,
			"target":34963
		},
		{
			"buffer":0,
			"byteLength":1277,
			"byteOffset":460064
		}
	],
	"samplers":[
		{
			"magFilter":9728,
			"minFilter":9984,
			"wrapS":33071,
			"wrapT":33071
		},
		{
			"magFilter":9729,
			"minFilter":9987
		},
		{
			"magFilter":9728,
			"minFilter":9984
		}
	],
	"buffers":[
		{
			"byteLength":461344,
			"uri":"data:application/octet-stream;base64,"
		}
	]
}
