{
	"asset":{
		"copyright":"Simon Potocnak",
		"generator":"Khronos glTF Blender I/O v3.6.27",
		"version":"2.0"
	},
	"scene":0,
	"scenes":[
		{
			"name":"Scene",
			"nodes":[
				0,
				5,
				6,
				7,
				8,
				9,
				10,
				11,
				12,
				13,
				14,
				15,
				16,
				17,
				18,
				19,
				20,
				21,
				22,
				23,
				24,
				25,
				26,
				27,
				28,
				29
			]
		}
	],
	"nodes":[
		{
			"mesh":0,
			"name":"C",
			"scale":[
				0.4413300156593323,
				0.4413300156593323,
				0.4413300156593323
			],
			"translation":[
				8.88657283782959,
				17.617538452148438,
				-1.5348930358886719
			]
		},
		{
			"mesh":1,
			"name":"Object_3.001",
			"rotation":[
				0,
				0,
				0.2129995971918106,
				0.9770523309707642
			],
			"translation":[
				41.48215866088867,
				70.84679412841797,
				8.726627129362896e-06
			]
		},
		{
			"mesh":2,
			"name":"Object_3.006",
			"rotation":[
				0,
				0,
				-0.33360108733177185,
				0.9427143931388855
			],
			"scale":[
				0.6718111038208008,
				0.6718111038208008,
				0.6718111038208008
			],
			"translation":[
				-72.46388244628906,
				16.56243896484375,
				0
			]
		},
		{
			"children":[
				1,
				2
			],
			"name":"Object_2",
			"translation":[
				0,
				-3.2085149541671854e-06,
				0
			]
		},
		{
			"children":[
				3
			],
			"name":"VoxelTree.obj.cleaner.materialmerger.gles",
			"translation":[
				-17.999998092651367,
				-17.999998092651367,
				0
			]
		},
		{
			"children":[
				4
			],
			"name":"TREE 01",
			"rotation":[
				-0.70710688829422,
				0,
				0,
				0.7071066498756409
			],
			"scale":[
				1.043258786201477,
				1.043258786201477,
				1.043258786201477
			],
			"translation":[
				-7.516379356384277,
				17.617538452148438,
				5.375862121582031
			]
		},
		{
			"mesh":3,
			"name":"TREE 02.001",
			"rotation":[
				-0.7038871049880981,
				0.06740418076515198,
				0.06740423291921616,
				0.7038866281509399
			],
			"scale":[
				1.6105332374572754,
				1.6105338335037231,
				1.6105339527130127
			],
			"translation":[
				-71.70429229736328,
				17.61754035949707,
				95.28976440429688
			]
		},
		{
			"mesh":4,
			"name":"pond",
			"scale":[
				-5.608164310455322,
				-5.608164310455322,
				-5.608164310455322
			],
			"translation":[
				78.75114440917969,
				18.5098876953125,
				-1.5348930358886719
			]
		},
		{
			"mesh":5,
			"name":"Trunt_top.001",
			"rotation":[
				-0.6910633444786072,
				-0.630988597869873,
				0.14977137744426727,
				0.31914472579956055
			],
			"scale":[
				0.7953281998634338,
				0.7953281998634338,
				0.7953283190727234
			],
			"translation":[
				-85.63865661621094,
				8.104333877563477,
				71.47926330566406
			]
		},
		{
			"mesh":3,
			"name":"TREE 02.009",
			"rotation":[
				-0.6075665354728699,
				0.36174988746643066,
				0.3617500364780426,
				0.6075663566589355
			],
			"scale":[
				1.6105331182479858,
				1.6105334758758545,
				1.610533356666565
			],
			"translation":[
				63.5084342956543,
				17.900299072265625,
				91.96397399902344
			]
		},
		{
			"mesh":6,
			"name":"Trunt_top.005",
			"rotation":[
				-0.6910633444786072,
				-0.630988597869873,
				0.14977137744426727,
				0.31914472579956055
			],
			"scale":[
				0.7953281998634338,
				0.7953281998634338,
				0.7953283190727234
			],
			"translation":[
				89.98267364501953,
				8.104333877563477,
				-80.9819107055664
			]
		},
		{
			"mesh":3,
			"name":"TREE 02.006",
			"rotation":[
				-0.6075665354728699,
				0.36174988746643066,
				0.3617500364780426,
				0.6075663566589355
			],
			"scale":[
				1.6105331182479858,
				1.6105334758758545,
				1.610533356666565
			],
			"translation":[
				9.801536560058594,
				17.419008255004883,
				31.075572967529297
			]
		},
		{
			"mesh":7,
			"name":"Cube",
			"scale":[
				0.4413300156593323,
				0.4413300156593323,
				0.4413300156593323
			],
			"translation":[
				39.04486846923828,
				17.725330352783203,
				19.474048614501953
			]
		},
		{
			"mesh":7,
			"name":"Cube.001",
			"scale":[
				0.4413300156593323,
				0.4413300156593323,
				0.4413300156593323
			],
			"translation":[
				-38.874725341796875,
				17.725330352783203,
				-1.5255584716796875
			]
		},
		{
			"mesh":7,
			"name":"Cube.002",
			"scale":[
				0.4413300156593323,
				0.4413300156593323,
				0.4413300156593323
			],
			"translation":[
				-43.295692443847656,
				17.725330352783203,
				36.32899475097656
			]
		},
		{
			"mesh":7,
			"name":"Cube.003",
			"scale":[
				0.4413300156593323,
				0.4413300156593323,
				0.4413300156593323
			],
			"translation":[
				-87.78169250488281,
				17.725330352783203,
				27.210742950439453
			]
		},
		{
			"mesh":7,
			"name":"Cube.004",
			"scale":[
				0.4413300156593323,
				0.4413300156593323,
				0.4413300156593323
			],
			"translation":[
				-76.45296478271484,
				17.725330352783203,
				-37.44594192504883
			]
		},
		{
			"mesh":7,
			"name":"Cube.005",
			"scale":[
				0.4413300156593323,
				0.4413300156593323,
				0.4413300156593323
			],
			"translation":[
				-53.24287414550781,
				17.725330352783203,
				-68.11642456054688
			]
		},
		{
			"mesh":7,
			"name":"Cube.006",
			"scale":[
				0.4413300156593323,
				0.4413300156593323,
				0.4413300156593323
			],
			"translation":[
				31.30817413330078,
				17.725330352783203,
				-69.7742919921875
			]
		},
		{
			"mesh":7,
			"name":"Cube.007",
			"scale":[
				0.4413300156593323,
				0.4413300156593323,
				0.4413300156593323
			],
			"translation":[
				110.3330078125,
				17.725330352783203,
				-44.35371017456055
			]
		},
		{
			"mesh":7,
			"name":"Cube.008",
			"scale":[
				0.4413300156593323,
				0.4413300156593323,
				0.4413300156593323
			],
			"translation":[
				107.56990051269531,
				17.725330352783203,
				52.90763473510742
			]
		},
		{
			"mesh":7,
			"name":"Cube.009",
			"scale":[
				0.4413300156593323,
				0.4413300156593323,
				0.4413300156593323
			],
			"translation":[
				-14.283084869384766,
				17.725330352783203,
				87.72276306152344
			]
		},
		{
			"mesh":7,
			"name":"Cube.010",
			"scale":[
				0.4413300156593323,
				0.4413300156593323,
				0.4413300156593323
			],
			"translation":[
				52.307769775390625,
				17.725330352783203,
				97.11732482910156
			]
		},
		{
			"mesh":7,
			"name":"Cube.011",
			"scale":[
				0.4413300156593323,
				0.4413300156593323,
				0.4413300156593323
			],
			"translation":[
				97.62271881103516,
				17.725330352783203,
				80.81500244140625
			]
		},
		{
			"mesh":8,
			"name":"Cube.012",
			"rotation":[
				0,
				0.11986523121595383,
				0,
				0.992790162563324
			],
			"scale":[
				0.3764530420303345,
				0.3764530122280121,
				0.15689541399478912
			],
			"translation":[
				11.186534881591797,
				17.436019897460938,
				76.07333374023438
			]
		},
		{
			"mesh":8,
			"name":"Cube.013",
			"rotation":[
				0,
				-0.2716379761695862,
				0,
				0.9623996019363403
			],
			"scale":[
				0.3764530420303345,
				0.3764530122280121,
				0.1568954437971115
			],
			"translation":[
				-21.412353515625,
				17.339622497558594,
				41.89511489868164
			]
		},
		{
			"mesh":8,
			"name":"Cube.014",
			"rotation":[
				0,
				-0.2716379761695862,
				0,
				0.9623996019363403
			],
			"scale":[
				0.3764530420303345,
				0.3764530122280121,
				0.1568954437971115
			],
			"translation":[
				23.87188720703125,
				17.339622497558594,
				-25.64748764038086
			]
		},
		{
			"mesh":7,
			"name":"Cube.015",
			"scale":[
				0.4413300156593323,
				0.4413300156593323,
				0.4413300156593323
			],
			"translation":[
				59.94470977783203,
				17.725330352783203,
				12.098089218139648
			]
		},
		{
			"mesh":7,
			"name":"Cube.016",
			"scale":[
				0.4413300156593323,
				0.4413300156593323,
				0.4413300156593323
			],
			"translation":[
				96.4023666381836,
				17.725330352783203,
				-24.551448822021484
			]
		},
		{
			"mesh":7,
			"name":"Rock",
			"scale":[
				0.4413300156593323,
				0.4413300156593323,
				0.4413300156593323
			],
			"translation":[
				39.04486846923828,
				17.725330352783203,
				19.474048614501953
			]
		}
	],
	"materials":[
		{
			"doubleSided":true,
			"name":"Material.023",
			"pbrMetallicRoughness":{
				"baseColorFactor":[
					0.800000011920929,
					0.09000000357627869,
					0,
					1
				],
				"metallicFactor":0.19685038924217224,
				"roughnessFactor":0.9921259880065918
			}
		},
		{
			"doubleSided":true,
			"name":"Material.024",
			"pbrMetallicRoughness":{
				"baseColorTexture":{
					"index":0
				},
				"metallicFactor":0.8031495809555054,
				"roughnessFactor":0.7362204790115356
			}
		},
		{
			"name":"Material.1",
			"pbrMetallicRoughness":{
				"baseColorTexture":{
					"index":1
				},
				"metallicFactor":0.31023621559143066,
				"roughnessFactor":0
			}
		},
		{
			"alphaMode":"BLEND",
			"doubleSided":true,
			"name":"Material.025",
			"pbrMetallicRoughness":{
				"baseColorFactor":[
					0,
					0.5325319766998291,
					0.8000000715255737,
					1
				],
				"metallicFactor":0.8188976645469666,
				"roughnessFactor":0.5629920959472656
			}
		},
		{
			"name":"Material.142",
			"pbrMetallicRoughness":{
				"baseColorTexture":{
					"index":2
				},
				"metallicFactor":0.20000000298023224,
				"roughnessFactor":0.5
			}
		},
		{
			"name":"Material.027",
			"pbrMetallicRoughness":{
				"baseColorTexture":{
					"index":3
				},
				"metallicFactor":0,
				"roughnessFactor":0.6968504190444946
			}
		},
		{
			"name":"Material.145",
			"pbrMetallicRoughness":{
				"baseColorTexture":{
					"index":4
				},
				"metallicFactor":0.20000000298023224,
				"roughnessFactor":0.5
			}
		},
		{
			"doubleSided":true,
			"name":"Material.028",
			"pbrMetallicRoughness":{
				"baseColorFactor":[
					0.06071946769952774,
					0.06071946769952774,
					0.06071946769952774,
					1
				],
				"metallicFactor":0,
				"roughnessFactor":0.5
			}
		},
		{
			"doubleSided":true,
			"name":"Material.029",
			"pbrMetallicRoughness":{
				"baseColorFactor":[
					0.06071946769952774,
					0.06071946769952774,
					0.06071946769952774,
					1
				],
				"metallicFactor":0,
				"roughnessFactor":0.5
			}
		},
		{
			"doubleSided":true,
			"name":"Material.030",
			"pbrMetallicRoughness":{
				"baseColorFactor":[
					0.06071845814585686,
					0.06071845814585686,
					0.06071845814585686,
					1
				],
				"metallicFactor":0,
				"roughnessFactor":0.5
			}
		}
	],
	"meshes":[
		{
			"name":"Plane.023",
			"primitives":[
				{
					"attributes":{
						"POSITION":0,
						"NORMAL":1,
						"TEXCOORD_0":2
					},
					"indices":3,
					"material":0
				}
			]
		},
		{
			"name":"Object_0.001",
			"primitives":[
				{
					"attributes":{
						"POSITION":4,
						"NORMAL":5,
						"TEXCOORD_0":6
					},
					"indices":7,
					"material":1
				}
			]
		},
		{
			"name":"Object_0.006",
			"primitives":[
				{
					"attributes":{
						"POSITION":8,
						"NORMAL":9,
						"TEXCOORD_0":10
					},
					"indices":7,
					"material":1
				}
			]
		},
		{
			"name":"Mesh_0",
			"primitives":[
				{
					"attributes":{
						"POSITION":11,
						"NORMAL":12,
						"TEXCOORD_0":13
					},
					"indices":14,
					"material":2
				}
			]
		},
		{
			"name":"Plane.002",
			"primitives":[
				{
					"attributes":{
						"POSITION":15,
						"NORMAL":16,
						"TEXCOORD_0":17
					},
					"indices":18,
					"material":3
				}
			]
		},
		{
			"name":"Mesh_10.001",
			"primitives":[
				{
					"attributes":{
						"POSITION":19,
						"NORMAL":20,
						"TEXCOORD_0":21
					},
					"indices":22,
					"material":4
				},
				{
					"attributes":{
						"POSITION":23,
						"NORMAL":24,
						"TEXCOORD_0":25
					},
					"indices":26,
					"material":5
				}
			]
		},
		{
			"name":"Mesh_10.005",
			"primitives":[
				{
					"attributes":{
						"POSITION":27,
						"NORMAL":28,
						"TEXCOORD_0":29
					},
					"indices":22,
					"material":6
				},
				{
					"attributes":{
						"POSITION":30,
						"NORMAL":31,
						"TEXCOORD_0":32
					},
					"indices":26,
					"material":5
				}
			]
		},
		{
			"name":"Cube.010",
			"primitives":[
				{
					"attributes":{
						"POSITION":33,
						"NORMAL":34,
						"TEXCOORD_0":35
					},
					"indices":36,
					"material":7
				},
				{
					"attributes":{
						"POSITION":37,
						"NORMAL":38,
						"TEXCOORD_0":39
					},
					"indices":40,
					"material":8
				}
			]
		},
		{
			"name":"Cube.011",
			"primitives":[
				{
					"attributes":{
						"POSITION":41,
						"NORMAL":42,
						"TEXCOORD_0":43
					},
					"indices":44,
					"material":9
				}
			]
		}
	],
	"textures":[
		{
			"sampler":0,
			"source":0
		},
		{
			"sampler":0,
			"source":1
		},
		{
			"sampler":0,
			"source":1
		},
		{
			"sampler":0,
			"source":2
		},
		{
			"sampler":0,
			"source":1
		}
	],
	"images":[
		{
			"bufferView":8,
			"mimeType":"image/png",
			"name":"palette_diffuse"
		},
		{
			"bufferView":16,
			"mimeType":"image/png",
			"name":"Image_0"
		},
		{
			"bufferView":29,
			"mimeType":"image/png",
			"name":"trunkTexture"
		}
	],
	"accessors":[
		{
			"bufferView":0,
			"componentType":5126,
			"count":6,
			"max":[
				250,
				0,
				250
			],
			"min":[
				-250,
				0,
				-250
			],
			"type":"VEC3"
		},
		{
			"bufferView":1,
			"componentType":5126,
			"count":6,
			"type":"VEC3"
		},
		{
			"bufferView":2,
			"componentType":5126,
			"count":6,
			"type":"VEC2"
		},
		{
			"bufferView":3,
			"componentType":5123,
			"count":12,
			"type":"SCALAR"
		},
		{
			"bufferView":4,
			"componentType":5126,
			"count":4782,
			"max":[
				36,
				36,
				58
			],
			"min":[
				0,
				0,
				0
			],
			"type":"VEC3"
		},
		{
			"bufferView":5,
			"componentType":5126,
			"count":4782,
			"type":"VEC3"
		},
		{
			"bufferView":6,
			"componentType":5126,
			"count":4782,
			"type":"VEC2"
		},
		{
			"bufferView":7,
			"componentType":5123,
			"count":8232,
			"type":"SCALAR"
		},
		{
			"bufferView":9,
			"componentType":5126,
			"count":4782,
			"max":[
				36,
				36,
				58
			],
			"min":[
				0,
				0,
				0
			],
			"type":"VEC3"
		},
		{
			"bufferView":10,
			"componentType":5126,
			"count":4782,
			"type":"VEC3"
		},
		{
			"bufferView":11,
			"componentType":5126,
			"count":4782,
			"type":"VEC2"
		},
		{
			"bufferView":12,
			"componentType":5126,
			"count":11880,
			"max":[
				28,
				28,
				40
			],
			"min":[
				3,
				3,
				0
			],
			"type":"VEC3"
		},
		{
			"bufferView":13,
			"componentType":5126,
			"count":11880,
			"type":"VEC3"
		},
		{
			"bufferView":14,
			"componentType":5126,
			"count":11880,
			"type":"VEC2"
		},
		{
			"bufferView":15,
			"componentType":5123,
			"count":17820,
			"type":"SCALAR"
		},
		{
			"bufferView":17,
			"componentType":5126,
			"count":39,
			"max":[
				3.9482998847961426,
				0.0077082873322069645,
				3.7095086574554443
			],
			"min":[
				-4.2705159187316895,
				-0.03443143889307976,
				-4.2283101081848145
			],
			"type":"VEC3"
		},
		{
			"bufferView":18,
			"componentType":5126,
			"count":39,
			"type":"VEC3"
		},
		{
			"bufferView":19,
			"componentType":5126,
			"count":39,
			"type":"VEC2"
		},
		{
			"bufferView":20,
			"componentType":5123,
			"count":96,
			"type":"SCALAR"
		},
		{
			"bufferView":21,
			"componentType":5126,
			"count":9068,
			"max":[
				28,
				12,
				8.000001907348633
			],
			"min":[
				3,
				-13,
				-16
			],
			"type":"VEC3"
		},
		{
			"bufferView":22,
			"componentType":5126,
			"count":9068,
			"type":"VEC3"
		},
		{
			"bufferView":23,
			"componentType":5126,
			"count":9068,
			"type":"VEC2"
		},
		{
			"bufferView":24,
			"componentType":5123,
			"count":13602,
			"type":"SCALAR"
		},
		{
			"bufferView":25,
			"componentType":5126,
			"count":24,
			"max":[
				21.383319854736328,
				2.9506475925445557,
				-3.0058040618896484
			],
			"min":[
				13.878125190734863,
				-3.2438910007476807,
				-26.01219367980957
			],
			"type":"VEC3"
		},
		{
			"bufferView":26,
			"componentType":5126,
			"count":24,
			"type":"VEC3"
		},
		{
			"bufferView":27,
			"componentType":5126,
			"count":24,
			"type":"VEC2"
		},
		{
			"bufferView":28,
			"componentType":5123,
			"count":36,
			"type":"SCALAR"
		},
		{
			"bufferView":30,
			"componentType":5126,
			"count":9068,
			"max":[
				28,
				12,
				8.000001907348633
			],
			"min":[
				3,
				-13,
				-16
			],
			"type":"VEC3"
		},
		{
			"bufferView":31,
			"componentType":5126,
			"count":9068,
			"type":"VEC3"
		},
		{
			"bufferView":32,
			"componentType":5126,
			"count":9068,
			"type":"VEC2"
		},
		{
			"bufferView":33,
			"componentType":5126,
			"count":24,
			"max":[
				21.383319854736328,
				2.9506475925445557,
				-3.0058040618896484
			],
			"min":[
				13.878125190734863,
				-3.2438910007476807,
				-26.01219367980957
			],
			"type":"VEC3"
		},
		{
			"bufferView":34,
			"componentType":5126,
			"count":24,
			"type":"VEC3"
		},
		{
			"bufferView":35,
			"componentType":5126,
			"count":24,
			"type":"VEC2"
		},
		{
			"bufferView":36,
			"componentType":5126,
			"count":144,
			"max":[
				1.3003654479980469,
				5.031484127044678,
				12.359039306640625
			],
			"min":[
				-14.629276275634766,
				-0.2442488670349121,
				-1.4425926208496094
			],
			"type":"VEC3"
		},
		{
			"bufferView":37,
			"componentType":5126,
			"count":144,
			"type":"VEC3"
		},
		{
			"bufferView":38,
			"componentType":5126,
			"count":144,
			"type":"VEC2"
		},
		{
			"bufferView":39,
			"componentType":5123,
			"count":216,
			"type":"SCALAR"
		},
		{
			"bufferView":40,
			"componentType":5126,
			"count":24,
			"max":[
				-0.7773408889770508,
				4.480965614318848,
				11.05003547668457
			],
			"min":[
				-13.4083251953125,
				-0.46378254890441895,
				-1.7746849060058594
			],
			"type":"VEC3"
		},
		{
			"bufferView":41,
			"componentType":5126,
			"count":24,
			"type":"VEC3"
		},
		{
			"bufferView":42,
			"componentType":5126,
			"count":24,
			"type":"VEC2"
		},
		{
			"bufferView":43,
			"componentType":5123,
			"count":36,
			"type":"SCALAR"
		},
		{
			"bufferView":44,
			"componentType":5126,
			"count":24,
			"max":[
				18.697097778320312,
				8.881317138671875,
				19.790315628051758
			],
			"min":[
				-18.806787490844727,
				-5.655303955078125,
				-19.092514038085938
			],
			"type":"VEC3"
		},
		{
			"bufferView":45,
			"componentType":5126,
			"count":24,
			"type":"VEC3"
		},
		{
			"bufferView":46,
			"componentType":5126,
			"count":24,
			"type":"VEC2"
		},
		{
			"bufferView":47,
			"componentType":5123,
			"count":36,
			"type":"SCALAR"
		}
	],
	"bufferViews":[
		{
			"buffer":0,
			"byteLength":72,
			"byteOffset":0,
			"target":34962
		},
		{
			"buffer":0,
			"byteLength":72,
			"byteOffset":72,
			"target":34962
		},
		{
			"buffer":0,
			"byteLength":48,
			"byteOffset":144,
			"target":34962
		},
		{
			"buffer":0,
			"byteLength":24,
			"byteOffset":192,
			"target":34963
		},
		{
			"buffer":0,
			"byteLength":57384,
			"byteOffset":216,
			"target":34962
		},
		{
			"buffer":0,
			"byteLength":57384,
			"byteOffset":57600,
			"target":34962
		},
		{
			"buffer":0,
			"byteLength":38256,
			"byteOffset":114984,
			"target":34962
		},
		{
			"buffer":0,
			"byteLength":16464,
			"byteOffset":153240,
			"target":34963
		},
		{
			"buffer":0,
			"byteLength":837,
			"byteOffset":169704
		},
		{
			"buffer":0,
			"byteLength":57384,
			"byteOffset":170544,
			"target":34962
		},
		{
			"buffer":0,
			"byteLength":57384,
			"byteOffset":227928,
			"target":34962
		},
		{
			"buffer":0,
			"byteLength":38256,
			"byteOffset":285312,
			"target":34962
		},
		{
			"buffer":0,
			"byteLength":142560,
			"byteOffset":323568,
			"target":34962
		},
		{
			"buffer":0,
			"byteLength":142560,
			"byteOffset":466128,
			"target":34962
		},
		{
			"buffer":0,
			"byteLength":95040,
			"byteOffset":608688,
			"target":34962
		},
		{
			"buffer":0,
			"byteLength":35640,
			"byteOffset":703728,
			"target":34963
		},
		{
			"buffer":0,
			"byteLength":96,
			"byteOffset":739368
		},
		{
			"buffer":0,
			"byteLength":468,
			"byteOffset":739464,
			"target":34962
		},
		{
			"buffer":0,
			"byteLength":468,
			"byteOffset":739932,
			"target":34962
		},
		{
			"buffer":0,
			"byteLength":312,
			"byteOffset":740400,
			"target":34962
		},
		{
			"buffer":0,
			"byteLength":192,
			"byteOffset":740712,
			"target":34963
		},
		{
			"buffer":0,
			"byteLength":108816,
			"byteOffset":740904,
			"target":34962
		},
		{
			"buffer":0,
			"byteLength":108816,
			"byteOffset":849720,
			"target":34962
		},
		{
			"buffer":0,
			"byteLength":72544,
			"byteOffset":958536,
			"target":34962
		},
		{
			"buffer":0,
			"byteLength":27204,
			"byteOffset":1031080,
			"target":34963
		},
		{
			"buffer":0,
			"byteLength":288,
			"byteOffset":1058284,
			"target":34962
		},
		{
			"buffer":0,
			"byteLength":288,
			"byteOffset":1058572,
			"target":34962
		},
		{
			"buffer":0,
			"byteLength":192,
			"byteOffset":1058860,
			"target":34962
		},
		{
			"buffer":0,
			"byteLength":72,
			"byteOffset":1059052,
			"target":34963
		},
		{
			"buffer":0,
			"byteLength":56625,
			"byteOffset":1059124
		},
		{
			"buffer":0,
			"byteLength":108816,
			"byteOffset":1115752,
			"target":34962
		},
		{
			"buffer":0,
			"byteLength":108816,
			"byteOffset":1224568,
			"target":34962
		},
		{
			"buffer":0,
			"byteLength":72544,
			"byteOffset":1333384,
			"target":34962
		},
		{
			"buffer":0,
			"byteLength":288,
			"byteOffset":1405928,
			"target":34962
		},
		{
			"buffer":0,
			"byteLength":288,
			"byteOffset":1406216,
			"target":34962
		},
		{
			"buffer":0,
			"byteLength":192,
			"byteOffset":1406504,
			"target":34962
		},
		{
			"buffer":0,
			"byteLength":1728,
			"byteOffset":1406696,
			"target":34962
		},
		{
			"buffer":0,
			"byteLength":1728,
			"byteOffset":1408424,
			"target":34962
		},
		{
			"buffer":0,
			"byteLength":1152,
			"byteOffset":1410152,
			"target":34962
		},
		{
			"buffer":0,
			"byteLength":432,
			"byteOffset":1411304,
			"target":34963
		},
		{
			"buffer":0,
			"byteLength":288,
			"byteOffset":1411736,
			"target":34962
		},
		{
			"buffer":0,
			"byteLength":288,
			"byteOffset":1412024,
			"target":34962
		},
		{
			"buffer":0,
			"byteLength":192,
			"byteOffset":1412312,
			"target":34962
		},
		{
			"buffer":0,
			"byteLength":72,
			"byteOffset":1412504,
			"target":34963
		},
		{
			"buffer":0,
			"byteLength":288,
			"byteOffset":1412576,
			"target":34962
		},
		{
			"buffer":0,
			"byteLength":288,
			"byteOffset":1412864,
			"target":34962
		},
		{
			"buffer":0,
			"byteLength":192,
			"byteOffset":1413152,
			"target":34962
		},
		{
			"buffer":0,
			"byteLength":72,
			"byteOffset":1413344,
			"target":34963
		}
	],
	"samplers":[
		{
			"magFilter":9729,
			"minFilter":9987
		}
	],
	"buffers":[
		{
			"byteLength":1413416,
			"uri":"data:application/octet-stream;base64,"
		}
	]
}
