{
	"asset":{
		"copyright":"Simon Potocnak",
		"generator":"Khronos glTF Blender I/O v3.6.27",
		"version":"2.0"
	},
	"scene":0,
	"scenes":[
		{
			"name":"Scene",
			"nodes":[
				0,
				1,
				2,
				3,
				4,
				5,
				6,
				7,
				8,
				9,
				10,
				11,
				12,
				13,
				14,
				15,
				16,
				17,
				18,
				19,
				20,
				21,
				22,
				23,
				24,
				25,
				26
			]
		}
	],
	"nodes":[
		{
			"mesh":0,
			"name":"TR",
			"scale":[
				0.4413300156593323,
				0.4413300156593323,
				0.4413300156593323
			],
			"translation":[
				-218.86236572265625,
				17.617538452148438,
				216.50027465820312
			]
		},
		{
			"mesh":1,
			"name":"Cube.111",
			"rotation":[
				0.801887035369873,
				-0.0011695382418110967,
				-0.5974738597869873,
				0.0008714054711163044
			],
			"scale":[
				0.05300087109208107,
				0.09520934522151947,
				0.08138494938611984
			],
			"translation":[
				92.37274169921875,
				51.67768859863281,
				-61.95703125
			]
		},
		{
			"mesh":2,
			"name":"TREE 02.011",
			"rotation":[
				-0.6075665354728699,
				0.36174988746643066,
				0.3617500364780426,
				0.6075663566589355
			],
			"scale":[
				1.6105331182479858,
				1.6105334758758545,
				1.610533356666565
			],
			"translation":[
				1.7958526611328125,
				17.61754035949707,
				17.56768798828125
			]
		},
		{
			"mesh":1,
			"name":"Cube.243",
			"rotation":[
				0.8519101738929749,
				-0.0012424965389072895,
				-0.523685872554779,
				0.0007637871312908828
			],
			"scale":[
				0.08622895926237106,
				0.15489934384822845,
				0.13240797817707062
			],
			"translation":[
				54.195404052734375,
				73.24241638183594,
				30.42401123046875
			]
		},
		{
			"mesh":3,
			"name":"pond.002",
			"scale":[
				-5.728820323944092,
				-5.728820323944092,
				-5.728820323944092
			],
			"translation":[
				57.938873291015625,
				18.655330657958984,
				-94.2598876953125
			]
		},
		{
			"mesh":4,
			"name":"Mountain.009",
			"rotation":[
				-0.9999986290931702,
				0,
				0.0016550258733332157,
				2.8212957658979576e-07
			],
			"scale":[
				-1,
				-19.624048233032227,
				-1
			],
			"translation":[
				-109.01644134521484,
				11.380606651306152,
				-96.70657348632812
			]
		},
		{
			"mesh":5,
			"name":"Mountain.010",
			"rotation":[
				-0.9999986290931702,
				0,
				0.0016550258733332157,
				2.8212957658979576e-07
			],
			"scale":[
				-1,
				-19.624048233032227,
				-1
			],
			"translation":[
				-68.41714477539062,
				11.380606651306152,
				-96.70657348632812
			]
		},
		{
			"mesh":6,
			"name":"Rock.005",
			"scale":[
				0.4413300156593323,
				0.4413300156593323,
				0.4413300156593323
			],
			"translation":[
				31.936737060546875,
				17.725330352783203,
				3.2305755615234375
			]
		},
		{
			"mesh":6,
			"name":"Cube.113",
			"scale":[
				0.4413300156593323,
				0.4413300156593323,
				0.4413300156593323
			],
			"translation":[
				89.29421997070312,
				17.725330352783203,
				-30.876815795898438
			]
		},
		{
			"mesh":6,
			"name":"Cube.208",
			"scale":[
				0.4413300156593323,
				0.4413300156593323,
				0.4413300156593323
			],
			"translation":[
				52.836578369140625,
				17.725330352783203,
				-4.1453857421875
			]
		},
		{
			"mesh":7,
			"name":"Cube.226",
			"rotation":[
				0,
				-0.2716379761695862,
				0,
				0.9623994827270508
			],
			"scale":[
				0.37645307183265686,
				0.3764530122280121,
				0.1568954437971115
			],
			"translation":[
				16.763748168945312,
				17.339622497558594,
				-33.91114807128906
			]
		},
		{
			"mesh":7,
			"name":"Cube.227",
			"rotation":[
				0,
				-0.2716379761695862,
				0,
				0.9623994827270508
			],
			"scale":[
				0.37645307183265686,
				0.3764530122280121,
				0.1568954437971115
			],
			"translation":[
				-28.520492553710938,
				17.339622497558594,
				25.651641845703125
			]
		},
		{
			"mesh":7,
			"name":"Cube.228",
			"rotation":[
				0,
				0.11986523121595383,
				0,
				0.992790162563324
			],
			"scale":[
				0.3764530420303345,
				0.3764530122280121,
				0.15689541399478912
			],
			"translation":[
				4.078399658203125,
				17.436019897460938,
				59.829864501953125
			]
		},
		{
			"mesh":6,
			"name":"Cube.229",
			"scale":[
				0.4413300156593323,
				0.4413300156593323,
				0.4413300156593323
			],
			"translation":[
				90.51458740234375,
				17.725330352783203,
				64.571533203125
			]
		},
		{
			"mesh":6,
			"name":"Cube.230",
			"scale":[
				0.4413300156593323,
				0.4413300156593323,
				0.4413300156593323
			],
			"translation":[
				45.199615478515625,
				17.725330352783203,
				80.87385559082031
			]
		},
		{
			"mesh":6,
			"name":"Cube.231",
			"scale":[
				0.4413300156593323,
				0.4413300156593323,
				0.4413300156593323
			],
			"translation":[
				-21.391220092773438,
				17.725330352783203,
				71.47929382324219
			]
		},
		{
			"mesh":6,
			"name":"Cube.232",
			"scale":[
				0.4413300156593323,
				0.4413300156593323,
				0.4413300156593323
			],
			"translation":[
				100.46176147460938,
				17.725330352783203,
				36.664154052734375
			]
		},
		{
			"mesh":6,
			"name":"Cube.233",
			"scale":[
				0.4413300156593323,
				0.4413300156593323,
				0.4413300156593323
			],
			"translation":[
				103.22488403320312,
				17.725330352783203,
				-34.238494873046875
			]
		},
		{
			"mesh":6,
			"name":"Cube.234",
			"scale":[
				0.4413300156593323,
				0.4413300156593323,
				0.4413300156593323
			],
			"translation":[
				15.236724853515625,
				17.725330352783203,
				-86.01776123046875
			]
		},
		{
			"mesh":6,
			"name":"Cube.235",
			"scale":[
				0.4413300156593323,
				0.4413300156593323,
				0.4413300156593323
			],
			"translation":[
				-60.35101318359375,
				17.725330352783203,
				-84.35989379882812
			]
		},
		{
			"mesh":6,
			"name":"Cube.236",
			"scale":[
				0.4413300156593323,
				0.4413300156593323,
				0.4413300156593323
			],
			"translation":[
				-83.56109619140625,
				17.725330352783203,
				-53.689422607421875
			]
		},
		{
			"mesh":6,
			"name":"Cube.237",
			"scale":[
				0.4413300156593323,
				0.4413300156593323,
				0.4413300156593323
			],
			"translation":[
				-94.88983154296875,
				17.725330352783203,
				10.967269897460938
			]
		},
		{
			"mesh":6,
			"name":"Cube.238",
			"scale":[
				0.4413300156593323,
				0.4413300156593323,
				0.4413300156593323
			],
			"translation":[
				-50.403839111328125,
				17.725330352783203,
				20.085525512695312
			]
		},
		{
			"mesh":6,
			"name":"Cube.239",
			"scale":[
				0.4413300156593323,
				0.4413300156593323,
				0.4413300156593323
			],
			"translation":[
				-45.98286437988281,
				17.725330352783203,
				-17.769027709960938
			]
		},
		{
			"mesh":6,
			"name":"Cube.240",
			"scale":[
				0.4413300156593323,
				0.4413300156593323,
				0.4413300156593323
			],
			"translation":[
				31.936737060546875,
				17.725330352783203,
				3.2305755615234375
			]
		},
		{
			"mesh":7,
			"name":"Cube.241",
			"rotation":[
				0,
				0.11986524611711502,
				0,
				0.992790162563324
			],
			"scale":[
				0.5230980515480042,
				0.5230981707572937,
				0.21801318228244781
			],
			"translation":[
				74.29238891601562,
				18.438125610351562,
				44.66204833984375
			]
		},
		{
			"mesh":7,
			"name":"Cube.242",
			"rotation":[
				0,
				0.11986524611711502,
				0,
				0.992790162563324
			],
			"scale":[
				0.6137214303016663,
				0.6137216091156006,
				0.2557825744152069
			],
			"translation":[
				-43.172576904296875,
				20.02049446105957,
				-57.673553466796875
			]
		}
	],
	"materials":[
		{
			"doubleSided":true,
			"name":"Material.059",
			"pbrMetallicRoughness":{
				"baseColorFactor":[
					0.800000011920929,
					0.09000000357627869,
					0,
					1
				],
				"metallicFactor":0.19685038924217224,
				"roughnessFactor":0.9921259880065918
			}
		},
		{
			"name":"Material.061",
			"pbrMetallicRoughness":{
				"baseColorTexture":{
					"index":0
				},
				"metallicFactor":0,
				"roughnessFactor":0.6968504190444946
			}
		},
		{
			"doubleSided":true,
			"name":"Material.062",
			"pbrMetallicRoughness":{
				"baseColorFactor":[
					0.015518968924880028,
					0.09462449699640274,
					0,
					1
				],
				"metallicFactor":0,
				"roughnessFactor":0
			}
		},
		{
			"name":"Material.159",
			"pbrMetallicRoughness":{
				"baseColorTexture":{
					"index":1
				},
				"metallicFactor":0.31023621559143066,
				"roughnessFactor":0
			}
		},
		{
			"alphaMode":"BLEND",
			"doubleSided":true,
			"name":"Material.064",
			"pbrMetallicRoughness":{
				"baseColorFactor":[
					0,
					0.5325319766998291,
					0.8000000715255737,
					1
				],
				"metallicFactor":0.8188976645469666,
				"roughnessFactor":0.5629920959472656
			}
		},
		{
			"doubleSided":true,
			"name":"Material.164",
			"pbrMetallicRoughness":{
				"baseColorFactor":[
					0.06071946769952774,
					0.06071946769952774,
					0.06071946769952774,
					1
				],
				"metallicFactor":0,
				"roughnessFactor":0.5
			}
		},
		{
			"doubleSided":true,
			"name":"Material.165",
			"pbrMetallicRoughness":{
				"baseColorFactor":[
					0.06071946769952774,
					0.06071946769952774,
					0.06071946769952774,
					1
				],
				"metallicFactor":0,
				"roughnessFactor":0.5
			}
		},
		{
			"doubleSided":true,
			"name":"Material.162",
			"pbrMetallicRoughness":{
				"baseColorFactor":[
					0.06071946769952774,
					0.06071946769952774,
					0.06071946769952774,
					1
				],
				"metallicFactor":0,
				"roughnessFactor":0.5
			}
		},
		{
			"doubleSided":true,
			"name":"Material.161",
			"pbrMetallicRoughness":{
				"baseColorFactor":[
					0.06071946769952774,
					0.06071946769952774,
					0.06071946769952774,
					1
				],
				"metallicFactor":0,
				"roughnessFactor":0.5
			}
		},
		{
			"doubleSided":true,
			"name":"Material.065",
			"pbrMetallicRoughness":{
				"baseColorFactor":[
					0.06071845814585686,
					0.06071845814585686,
					0.06071845814585686,
					1
				],
				"metallicFactor":0,
				"roughnessFactor":0.5
			}
		}
	],
	"meshes":[
		{
			"name":"Plane.025",
			"primitives":[
				{
					"attributes":{
						"POSITION":0,
						"NORMAL":1,
						"TEXCOORD_0":2
					},
					"indices":3,
					"material":0
				}
			]
		},
		{
			"name":"Cube.049",
			"primitives":[
				{
					"attributes":{
						"POSITION":4,
						"NORMAL":5,
						"TEXCOORD_0":6
					},
					"indices":7,
					"material":1
				},
				{
					"attributes":{
						"POSITION":8,
						"NORMAL":9,
						"TEXCOORD_0":10
					},
					"indices":11,
					"material":2
				}
			]
		},
		{
			"name":"Mesh_0.009",
			"primitives":[
				{
					"attributes":{
						"POSITION":12,
						"NORMAL":13,
						"TEXCOORD_0":14
					},
					"indices":15,
					"material":3
				}
			]
		},
		{
			"name":"Plane.005",
			"primitives":[
				{
					"attributes":{
						"POSITION":16,
						"NORMAL":17,
						"TEXCOORD_0":18
					},
					"indices":19,
					"material":4
				}
			]
		},
		{
			"name":"Cube.067",
			"primitives":[
				{
					"attributes":{
						"POSITION":20,
						"NORMAL":21,
						"TEXCOORD_0":22
					},
					"indices":23,
					"material":5
				}
			]
		},
		{
			"name":"Cube.075",
			"primitives":[
				{
					"attributes":{
						"POSITION":24,
						"NORMAL":25,
						"TEXCOORD_0":26
					},
					"indices":27,
					"material":6
				}
			]
		},
		{
			"name":"Cube.052",
			"primitives":[
				{
					"attributes":{
						"POSITION":28,
						"NORMAL":29,
						"TEXCOORD_0":30
					},
					"indices":31,
					"material":7
				},
				{
					"attributes":{
						"POSITION":32,
						"NORMAL":33,
						"TEXCOORD_0":34
					},
					"indices":35,
					"material":8
				}
			]
		},
		{
			"name":"Cube.051",
			"primitives":[
				{
					"attributes":{
						"POSITION":36,
						"NORMAL":37,
						"TEXCOORD_0":38
					},
					"indices":39,
					"material":9
				}
			]
		}
	],
	"textures":[
		{
			"sampler":0,
			"source":0
		},
		{
			"sampler":0,
			"source":1
		}
	],
	"images":[
		{
			"bufferView":8,
			"mimeType":"image/png",
			"name":"trunkTexture"
		},
		{
			"bufferView":17,
			"mimeType":"image/png",
			"name":"Image_0"
		}
	],
	"accessors":[
		{
			"bufferView":0,
			"componentType":5126,
			"count":4,
			"max":[
				750,
				0,
				-250
			],
			"min":[
				250,
				0,
				-750
			],
			"type":"VEC3"
		},
		{
			"bufferView":1,
			"componentType":5126,
			"count":4,
			"type":"VEC3"
		},
		{
			"bufferView":2,
			"componentType":5126,
			"count":4,
			"type":"VEC2"
		},
		{
			"bufferView":3,
			"componentType":5123,
			"count":6,
			"type":"SCALAR"
		},
		{
			"bufferView":4,
			"componentType":5126,
			"count":164,
			"max":[
				27.33014678955078,
				385.8387451171875,
				33.379478454589844
			],
			"min":[
				-602.6372680664062,
				-163.3383026123047,
				-39.333709716796875
			],
			"type":"VEC3"
		},
		{
			"bufferView":5,
			"componentType":5126,
			"count":164,
			"type":"VEC3"
		},
		{
			"bufferView":6,
			"componentType":5126,
			"count":164,
			"type":"VEC2"
		},
		{
			"bufferView":7,
			"componentType":5123,
			"count":180,
			"type":"SCALAR"
		},
		{
			"bufferView":9,
			"componentType":5126,
			"count":470,
			"max":[
				245.80062866210938,
				-33.67134094238281,
				162.01043701171875
			],
			"min":[
				-830.7220458984375,
				-208.193115234375,
				-207.01239013671875
			],
			"type":"VEC3"
		},
		{
			"bufferView":10,
			"componentType":5126,
			"count":470,
			"type":"VEC3"
		},
		{
			"bufferView":11,
			"componentType":5126,
			"count":470,
			"type":"VEC2"
		},
		{
			"bufferView":12,
			"componentType":5123,
			"count":648,
			"type":"SCALAR"
		},
		{
			"bufferView":13,
			"componentType":5126,
			"count":11880,
			"max":[
				28,
				28,
				40
			],
			"min":[
				3,
				3,
				0
			],
			"type":"VEC3"
		},
		{
			"bufferView":14,
			"componentType":5126,
			"count":11880,
			"type":"VEC3"
		},
		{
			"bufferView":15,
			"componentType":5126,
			"count":11880,
			"type":"VEC2"
		},
		{
			"bufferView":16,
			"componentType":5123,
			"count":17820,
			"type":"SCALAR"
		},
		{
			"bufferView":18,
			"componentType":5126,
			"count":43,
			"max":[
				3.9482998847961426,
				0.0077082873322069645,
				3.7095086574554443
			],
			"min":[
				-4.2705159187316895,
				-0.03443143889307976,
				-4.2283101081848145
			],
			"type":"VEC3"
		},
		{
			"bufferView":19,
			"componentType":5126,
			"count":43,
			"type":"VEC3"
		},
		{
			"bufferView":20,
			"componentType":5126,
			"count":43,
			"type":"VEC2"
		},
		{
			"bufferView":21,
			"componentType":5123,
			"count":96,
			"type":"SCALAR"
		},
		{
			"bufferView":22,
			"componentType":5126,
			"count":290,
			"max":[
				35.31560516357422,
				1.9415982961654663,
				34.68067932128906
			],
			"min":[
				-19.446380615234375,
				-1.9660019874572754,
				-17.077104568481445
			],
			"type":"VEC3"
		},
		{
			"bufferView":23,
			"componentType":5126,
			"count":290,
			"type":"VEC3"
		},
		{
			"bufferView":24,
			"componentType":5126,
			"count":290,
			"type":"VEC2"
		},
		{
			"bufferView":25,
			"componentType":5123,
			"count":396,
			"type":"SCALAR"
		},
		{
			"bufferView":26,
			"componentType":5126,
			"count":266,
			"max":[
				35.31560516357422,
				1.8293166160583496,
				34.68067932128906
			],
			"min":[
				-19.446380615234375,
				-1.9660019874572754,
				-17.07710075378418
			],
			"type":"VEC3"
		},
		{
			"bufferView":27,
			"componentType":5126,
			"count":266,
			"type":"VEC3"
		},
		{
			"bufferView":28,
			"componentType":5126,
			"count":266,
			"type":"VEC2"
		},
		{
			"bufferView":29,
			"componentType":5123,
			"count":366,
			"type":"SCALAR"
		},
		{
			"bufferView":30,
			"componentType":5126,
			"count":148,
			"max":[
				1.3003654479980469,
				5.031484127044678,
				12.359039306640625
			],
			"min":[
				-14.629276275634766,
				-0.2442488670349121,
				-1.4425926208496094
			],
			"type":"VEC3"
		},
		{
			"bufferView":31,
			"componentType":5126,
			"count":148,
			"type":"VEC3"
		},
		{
			"bufferView":32,
			"componentType":5126,
			"count":148,
			"type":"VEC2"
		},
		{
			"bufferView":33,
			"componentType":5123,
			"count":216,
			"type":"SCALAR"
		},
		{
			"bufferView":34,
			"componentType":5126,
			"count":24,
			"max":[
				-0.7773408889770508,
				4.480965614318848,
				11.05003547668457
			],
			"min":[
				-13.4083251953125,
				-0.46378254890441895,
				-1.7746849060058594
			],
			"type":"VEC3"
		},
		{
			"bufferView":35,
			"componentType":5126,
			"count":24,
			"type":"VEC3"
		},
		{
			"bufferView":36,
			"componentType":5126,
			"count":24,
			"type":"VEC2"
		},
		{
			"bufferView":37,
			"componentType":5123,
			"count":36,
			"type":"SCALAR"
		},
		{
			"bufferView":38,
			"componentType":5126,
			"count":24,
			"max":[
				18.697097778320312,
				8.881317138671875,
				19.790315628051758
			],
			"min":[
				-18.806787490844727,
				-5.655303955078125,
				-19.092514038085938
			],
			"type":"VEC3"
		},
		{
			"bufferView":39,
			"componentType":5126,
			"count":24,
			"type":"VEC3"
		},
		{
			"bufferView":40,
			"componentType":5126,
			"count":24,
			"type":"VEC2"
		},
		{
			"bufferView":41,
			"componentType":5123,
			"count":36,
			"type":"SCALAR"
		}
	],
	"bufferViews":[
		{
			"buffer":0,
			"byteLength":48,
			"byteOffset":0,
			"target":34962
		},
		{
			"buffer":0,
			"byteLength":48,
			"byteOffset":48,
			"target":34962
		},
		{
			"buffer":0,
			"byteLength":32,
			"byteOffset":96,
			"target":34962
		},
		{
			"buffer":0,
			"byteLength":12,
			"byteOffset":128,
			"target":34963
		},
		{
			"buffer":0,
			"byteLength":1968,
			"byteOffset":140,
			"target":34962
		},
		{
			"buffer":0,
			"byteLength":1968,
			"byteOffset":2108,
			"target":34962
		},
		{
			"buffer":0,
			"byteLength":1312,
			"byteOffset":4076,
			"target":34962
		},
		{
			"buffer":0,
			"byteLength":360,
			"byteOffset":5388,
			"target":34963
		},
		{
			"buffer":0,
			"byteLength":56625,
			"byteOffset":5748
		},
		{
			"buffer":0,
			"byteLength":5640,
			"byteOffset":62376,
			"target":34962
		},
		{
			"buffer":0,
			"byteLength":5640,
			"byteOffset":68016,
			"target":34962
		},
		{
			"buffer":0,
			"byteLength":3760,
			"byteOffset":73656,
			"target":34962
		},
		{
			"buffer":0,
			"byteLength":1296,
			"byteOffset":77416,
			"target":34963
		},
		{
			"buffer":0,
			"byteLength":142560,
			"byteOffset":78712,
			"target":34962
		},
		{
			"buffer":0,
			"byteLength":142560,
			"byteOffset":221272,
			"target":34962
		},
		{
			"buffer":0,
			"byteLength":95040,
			"byteOffset":363832,
			"target":34962
		},
		{
			"buffer":0,
			"byteLength":35640,
			"byteOffset":458872,
			"target":34963
		},
		{
			"buffer":0,
			"byteLength":96,
			"byteOffset":494512
		},
		{
			"buffer":0,
			"byteLength":516,
			"byteOffset":494608,
			"target":34962
		},
		{
			"buffer":0,
			"byteLength":516,
			"byteOffset":495124,
			"target":34962
		},
		{
			"buffer":0,
			"byteLength":344,
			"byteOffset":495640,
			"target":34962
		},
		{
			"buffer":0,
			"byteLength":192,
			"byteOffset":495984,
			"target":34963
		},
		{
			"buffer":0,
			"byteLength":3480,
			"byteOffset":496176,
			"target":34962
		},
		{
			"buffer":0,
			"byteLength":3480,
			"byteOffset":499656,
			"target":34962
		},
		{
			"buffer":0,
			"byteLength":2320,
			"byteOffset":503136,
			"target":34962
		},
		{
			"buffer":0,
			"byteLength":792,
			"byteOffset":505456,
			"target":34963
		},
		{
			"buffer":0,
			"byteLength":3192,
			"byteOffset":506248,
			"target":34962
		},
		{
			"buffer":0,
			"byteLength":3192,
			"byteOffset":509440,
			"target":34962
		},
		{
			"buffer":0,
			"byteLength":2128,
			"byteOffset":512632,
			"target":34962
		},
		{
			"buffer":0,
			"byteLength":732,
			"byteOffset":514760,
			"target":34963
		},
		{
			"buffer":0,
			"byteLength":1776,
			"byteOffset":515492,
			"target":34962
		},
		{
			"buffer":0,
			"byteLength":1776,
			"byteOffset":517268,
			"target":34962
		},
		{
			"buffer":0,
			"byteLength":1184,
			"byteOffset":519044,
			"target":34962
		},
		{
			"buffer":0,
			"byteLength":432,
			"byteOffset":520228,
			"target":34963
		},
		{
			"buffer":0,
			"byteLength":288,
			"byteOffset":520660,
			"target":34962
		},
		{
			"buffer":0,
			"byteLength":288,
			"byteOffset":520948,
			"target":34962
		},
		{
			"buffer":0,
			"byteLength":192,
			"byteOffset":521236,
			"target":34962
		},
		{
			"buffer":0,
			"byteLength":72,
			"byteOffset":521428,
			"target":34963
		},
		{
			"buffer":0,
			"byteLength":288,
			"byteOffset":521500,
			"target":34962
		},
		{
			"buffer":0,
			"byteLength":288,
			"byteOffset":521788,
			"target":34962
		},
		{
			"buffer":0,
			"byteLength":192,
			"byteOffset":522076,
			"target":34962
		},
		{
			"buffer":0,
			"byteLength":72,
			"byteOffset":522268,
			"target":34963
		}
	],
	"samplers":[
		{
			"magFilter":9729,
			"minFilter":9987
		}
	],
	"buffers":[
		{
			"byteLength":522340,
			"uri":"data:application/octet-stream;base64,"
		}
	]
}
